<svg width="234" height="234" fill="none" xmlns="http://www.w3.org/2000/svg"><path d="M151.646 179.866l22.419-39.052-3.76-6.25-22.303 38.89h-4.217l-3.646 6.429 11.507-.017zM57.907 92.967l3.813 6.125 22.063-37.706h4.71l3.656-6.177H79.761l-3.334 6.177-18.52 31.581zm45.864-31.581h44.371l2.823 4.853h7.828l-6.251-11.03h-45.37l-3.401 6.177zm23.696 112.509h-44.37l-2.825-4.853h-7.827l6.25 11.03h45.371l3.401-6.177zm31.199-94.42l21.855 37.567-2.783 4.769 3.812 6.099 6.257-10.469-21.469-37.966h-7.672zM72.65 155.364l-21.855-37.617 2.783-4.794-3.812-6.111-6.257 10.512 21.47 38.01h7.672z" fill="#fff"/><path d="M153.57 83.502a5.077 5.077 0 00-5.078-5.077 5.076 5.076 0 00-.665 10.106l32.754 56.211-12.883 22.644 5.213 3.644 14.896-25.854-34.584-59.843a5.04 5.04 0 00.347-1.831z" fill="url(#paint1_linear)"/><path d="M103.447 67.355c-2.804 0-5.077 2.24-5.077 5.045 0 2.805 2.273 5.045 5.077 5.045 1.605 0 3.034-.618 3.964-1.941h65.14l13.533 23.587 4.937-3.422-14.863-26.342h-68.747c-.93-1.324-2.359-1.972-3.964-1.972z" fill="url(#paint2_linear)"/><path d="M70.002 99.73c-2.3.484-4.04 2.522-4.04 4.967a5.071 5.071 0 005.071 5.077 5.074 5.074 0 005.074-5.077c0-.753-.17-1.463-.464-2.106l31.825-54.442h23.772v-6.177h-27.356v-.159L70.002 99.73z" fill="url(#paint3_linear)"/><path d="M78.158 148.99a5.077 5.077 0 109.778 1.917 5.072 5.072 0 00-4.245-5.002l-31.77-55.714 12.7-21.641-5.469-3.197-14.587 24.713.007.01-.008.004 33.594 58.91z" fill="url(#paint4_linear)"/><path d="M166.712 128.182a5.079 5.079 0 00-10.156 0c0 .642.124 1.293.341 1.858l-33.02 57.092H99.031v6.177h28.498l.002.041 34.836-60.17c2.456-.357 4.345-2.444 4.345-4.998z" fill="url(#paint5_linear)"/><path d="M124.404 165.954c.931.882 2.36 1.84 3.965 1.84 2.804 0 5.077-2.345 5.077-5.149s-2.273-5.148-5.077-5.148c-1.605 0-3.034.956-3.965 1.838H59.856l-12.54-22.008-5.503 3.174 14.342 25.294.078-.024v.183h68.171z" fill="url(#paint6_linear)"/><path d="M92.685 123.785l5.74-14h3.94l5.66 14h-3.72l-1.28-3.38h-5.46l-1.3 3.38h-3.58zm5.92-6.12h3.4l-1.68-4.48-1.72 4.48zm13.439 6.12v-14h3.44v10.96h7.38v3.04h-10.82zm15.734 0v-14h3.44v10.96h7.38v3.04h-10.82z" fill="#fff"/><defs><linearGradient id="paint0_linear" x1="213.321" y1=".802" x2="8.885" y2="226.67" gradientUnits="userSpaceOnUse"><stop stop-color="#9916FF"/><stop offset=".991" stop-color="#1961F3"/></linearGradient><linearGradient id="paint1_linear" x1="165.611" y1="78.425" x2="172.168" y2="170.944" gradientUnits="userSpaceOnUse"><stop stop-color="#E00480"/><stop offset=".521" stop-color="#FB0010"/><stop offset="1" stop-color="#FF7A00"/></linearGradient><linearGradient id="paint2_linear" x1="101.788" y1="73.637" x2="191.139" y2="99.34" gradientUnits="userSpaceOnUse"><stop stop-color="#9816FF"/><stop offset="1" stop-color="red"/></linearGradient><linearGradient id="paint3_linear" x1="125.656" y1="41.813" x2="65.681" y2="105.461" gradientUnits="userSpaceOnUse"><stop stop-color="#9916FF"/><stop offset=".991" stop-color="#1961F3"/></linearGradient><linearGradient id="paint4_linear" x1="57.113" y1="65.07" x2="82.817" y2="150.749" gradientUnits="userSpaceOnUse"><stop stop-color="#1A5AFF"/><stop offset="1" stop-color="#1FC74D"/></linearGradient><linearGradient id="paint5_linear" x1="162.988" y1="126.269" x2="98.729" y2="193.588" gradientUnits="userSpaceOnUse"><stop stop-color="#FE6B02"/><stop offset="1" stop-color="#FFBE16"/></linearGradient><linearGradient id="paint6_linear" x1="133.612" y1="163.601" x2="41.813" y2="142.793" gradientUnits="userSpaceOnUse"><stop stop-color="#FFB815"/><stop offset="1" stop-color="#06C954"/></linearGradient></defs></svg>