<svg width="678" height="192" fill="none" xmlns="http://www.w3.org/2000/svg"><path d="M6 70V11C6 5.477 10.477 1 16 1h646c5.523 0 10 4.477 10 10v59M6 130.5V181c0 5.523 4.477 10 10 10h646c5.523 0 10-4.477 10-10v-50.5" stroke="url(#paint0_linear)" stroke-width="2"/><circle cx="6" cy="68" r="5.5" fill="url(#paint1_linear)" stroke="url(#paint2_linear)"/><circle cx="672" cy="68" r="5.5" fill="url(#paint3_linear)" stroke="url(#paint4_linear)"/><circle cx="6" cy="129" r="5.5" fill="url(#paint5_linear)" stroke="url(#paint6_linear)"/><circle cx="672" cy="129" r="5.5" fill="url(#paint7_linear)" stroke="url(#paint8_linear)"/><defs><linearGradient id="paint0_linear" x1="635.356" y1="9.559" x2="549.932" y2="335.138" gradientUnits="userSpaceOnUse"><stop stop-color="#FE6B02"/><stop offset="1" stop-color="#FFBE16"/></linearGradient><linearGradient id="paint1_linear" x1="11.34" y1="62.541" x2=".389" y2="74.448" gradientUnits="userSpaceOnUse"><stop stop-color="#FE6B02"/><stop offset="1" stop-color="#FFBE16"/></linearGradient><linearGradient id="paint2_linear" x1="11.34" y1="62.541" x2=".389" y2="74.448" gradientUnits="userSpaceOnUse"><stop stop-color="#FE6B02"/><stop offset="1" stop-color="#FFBE16"/></linearGradient><linearGradient id="paint3_linear" x1="677.34" y1="62.541" x2="666.389" y2="74.448" gradientUnits="userSpaceOnUse"><stop stop-color="#FE6B02"/><stop offset="1" stop-color="#FFBE16"/></linearGradient><linearGradient id="paint4_linear" x1="677.34" y1="62.541" x2="666.389" y2="74.448" gradientUnits="userSpaceOnUse"><stop stop-color="#FE6B02"/><stop offset="1" stop-color="#FFBE16"/></linearGradient><linearGradient id="paint5_linear" x1="11.34" y1="123.541" x2=".389" y2="135.448" gradientUnits="userSpaceOnUse"><stop stop-color="#FE6B02"/><stop offset="1" stop-color="#FFBE16"/></linearGradient><linearGradient id="paint6_linear" x1="11.34" y1="123.541" x2=".389" y2="135.448" gradientUnits="userSpaceOnUse"><stop stop-color="#FE6B02"/><stop offset="1" stop-color="#FFBE16"/></linearGradient><linearGradient id="paint7_linear" x1="677.34" y1="123.541" x2="666.389" y2="135.448" gradientUnits="userSpaceOnUse"><stop stop-color="#FE6B02"/><stop offset="1" stop-color="#FFBE16"/></linearGradient><linearGradient id="paint8_linear" x1="677.34" y1="123.541" x2="666.389" y2="135.448" gradientUnits="userSpaceOnUse"><stop stop-color="#FE6B02"/><stop offset="1" stop-color="#FFBE16"/></linearGradient></defs></svg>