<svg width="150" height="155" fill="none" xmlns="http://www.w3.org/2000/svg"><path d="M98.028 96.567l15.927-27.316-2.671-4.372-15.845 27.204h-2.996l-2.59 4.496 8.175-.012zM31.433 35.782l2.71 4.284 15.673-26.375h3.346l2.598-4.32h-8.802l-2.368 4.32-13.157 22.091zm32.583-22.091h31.521l2.006 3.395h5.561l-4.44-7.716H66.431l-2.416 4.321zM80.85 92.392H49.328l-2.006-3.395h-5.56l4.44 7.716h32.232l2.416-4.321zm22.164-66.047l15.526 26.278-1.977 3.336 2.708 4.266 4.446-7.323-15.253-26.557h-5.45zM41.907 79.43L26.381 53.115l1.977-3.353-2.708-4.275-4.445 7.353 15.252 26.59h5.45z" fill="#fff"/><path d="M99.394 29.16c0-1.961-1.614-3.55-3.607-3.55s-3.607 1.589-3.607 3.55c0 1.805 1.365 3.29 3.134 3.519l23.269 39.32-9.152 15.839 3.703 2.549 10.583-18.085-24.569-41.86a3.48 3.48 0 00.246-1.281z" fill="url(#paint0_linear)"/><path d="M63.785 17.867c-1.991 0-3.606 1.568-3.606 3.53 0 1.962 1.615 3.529 3.606 3.529 1.141 0 2.156-.432 2.817-1.358h46.276l9.614 16.499L126 37.673l-10.559-18.426h-48.84c-.66-.926-1.675-1.38-2.816-1.38z" fill="url(#paint1_linear)"/><path d="M40.026 40.513c-1.634.338-2.87 1.764-2.87 3.474 0 1.962 1.61 3.552 3.603 3.552 1.991 0 3.605-1.59 3.605-3.552 0-.526-.121-1.023-.33-1.473L66.643 4.432H83.53V.11H64.097V0L40.026 40.513z" fill="url(#paint2_linear)"/><path d="M45.82 74.97a3.492 3.492 0 00-.268 1.34c0 1.962 1.615 3.553 3.608 3.553 1.992 0 3.607-1.59 3.607-3.553 0-1.762-1.306-3.22-3.016-3.499L27.181 33.84l9.023-15.137-3.885-2.237-10.364 17.287.005.007-.005.002L45.82 74.97z" fill="url(#paint3_linear)"/><path d="M108.73 60.414c0-1.962-1.616-3.552-3.608-3.552-1.991 0-3.607 1.59-3.607 3.552 0 .45.088.905.242 1.3L78.299 101.65H60.65v4.32h20.245l.001.029 24.748-42.09c1.745-.248 3.087-1.708 3.087-3.495z" fill="url(#paint4_linear)"/><path d="M78.674 86.837c.661.617 1.676 1.287 2.817 1.287a3.622 3.622 0 003.607-3.602c0-1.961-1.615-3.6-3.607-3.6-1.14 0-2.156.668-2.817 1.285H32.818L23.91 66.813 20 69.032l10.189 17.693.055-.017v.128h48.43z" fill="url(#paint5_linear)"/><path d="M20.023 139v-16.8h3.48V139h-3.48zm8.939-16.8h3.312l8.352 10.872V122.2h3.264V139h-3.072l-8.568-11.232V139h-3.288v-16.8zM49.339 139v-16.8h3.48v13.728h9.192V139H49.339zm17.47 0v-16.8h3.48V139h-3.48zm25.619-8.376a9.159 9.159 0 01-.648 3.456 8.109 8.109 0 01-1.752 2.736c-.736.752-1.624 1.352-2.664 1.8a8.671 8.671 0 01-3.36.648 9.112 9.112 0 01-3.504-.672 8.978 8.978 0 01-2.832-1.824 8.957 8.957 0 01-1.872-2.76 8.377 8.377 0 01-.696-3.408c0-1.216.224-2.352.672-3.408a8.663 8.663 0 011.872-2.736c.8-.784 1.744-1.4 2.832-1.848a9.05 9.05 0 013.48-.672 9.4 9.4 0 013.936.84c1.232.56 2.248 1.328 3.048 2.304l-2.424 2.232a6.028 6.028 0 00-2.064-1.608 5.503 5.503 0 00-2.496-.576c-.752 0-1.456.144-2.112.432-.64.272-1.2.656-1.68 1.152a5.333 5.333 0 00-1.104 1.728 5.893 5.893 0 00-.384 2.16c0 .784.136 1.512.408 2.184a5.407 5.407 0 001.128 1.752c.48.48 1.048.864 1.704 1.152a5.639 5.639 0 002.136.408c1.184 0 2.2-.328 3.048-.984.864-.656 1.4-1.496 1.608-2.52H83.74v-3.024h8.688v1.056zM97.203 139v-16.8h3.48v6.744h7.728V122.2h3.48V139h-3.48v-6.864h-7.728V139h-3.48zm19.062-13.728V122.2h14.784v3.072h-5.64V139h-3.48v-13.728h-5.664z" fill="#fff"/><defs><linearGradient id="paint0_linear" x1="107.949" y1="25.609" x2="112.465" y2="90.337" gradientUnits="userSpaceOnUse"><stop stop-color="#E00480"/><stop offset=".521" stop-color="#FB0010"/><stop offset="1" stop-color="#FF7A00"/></linearGradient><linearGradient id="paint1_linear" x1="62.607" y1="22.262" x2="125.931" y2="40.763" gradientUnits="userSpaceOnUse"><stop stop-color="#9816FF"/><stop offset="1" stop-color="red"/></linearGradient><linearGradient id="paint2_linear" x1="79.564" y1="0" x2="37.654" y2="45.169" gradientUnits="userSpaceOnUse"><stop stop-color="#9916FF"/><stop offset=".991" stop-color="#1961F3"/></linearGradient><linearGradient id="paint3_linear" x1="30.87" y1="16.267" x2="48.618" y2="76.351" gradientUnits="userSpaceOnUse"><stop stop-color="#1A5AFF"/><stop offset="1" stop-color="#1FC74D"/></linearGradient><linearGradient id="paint4_linear" x1="106.084" y1="59.076" x2="61.173" y2="106.861" gradientUnits="userSpaceOnUse"><stop stop-color="#FE6B02"/><stop offset="1" stop-color="#FFBE16"/></linearGradient><linearGradient id="paint5_linear" x1="85.216" y1="85.191" x2="20.1" y2="70.201" gradientUnits="userSpaceOnUse"><stop stop-color="#FFB815"/><stop offset="1" stop-color="#06C954"/></linearGradient></defs></svg>