<svg width="78" height="77" fill="none" xmlns="http://www.w3.org/2000/svg"><path d="M56.99 69.813l11.515-19.748-1.931-3.16L55.119 66.57h-2.166l-1.872 3.25 5.91-.008zM8.847 25.868l1.958 3.097L22.137 9.897h2.419l1.877-3.123h-6.362l-1.713 3.123-9.511 15.971zM32.401 9.897H55.19l1.45 2.455h4.02l-3.21-5.578H34.148l-1.747 3.123zm12.171 56.897h-22.79l-1.45-2.454h-4.02l3.21 5.578h23.302l1.746-3.124zm16.023-47.748L71.82 38.044l-1.43 2.411 1.959 3.084 3.213-5.294-11.026-19.2h-3.94zM16.418 57.423L5.194 38.4l1.429-2.424-1.958-3.09L1.45 38.2l11.027 19.222h3.94z" fill="#fff"/><path d="M57.978 21.082c0-1.418-1.167-2.567-2.608-2.567-1.44 0-2.607 1.149-2.607 2.567 0 1.304.987 2.378 2.266 2.543L71.85 52.051l-6.617 11.451 2.678 1.843 7.65-13.074L57.8 22.008c.114-.287.178-.599.178-.926z" fill="url(#paint0_linear)"/><path d="M32.235 12.916c-1.44 0-2.608 1.134-2.608 2.552 0 1.418 1.168 2.551 2.608 2.551.825 0 1.559-.312 2.036-.981h33.455l6.95 11.927 2.536-1.73-7.633-13.321H34.271c-.478-.67-1.212-.998-2.036-.998z" fill="url(#paint1_linear)"/><path d="M15.058 29.288c-1.182.245-2.075 1.276-2.075 2.512 0 1.419 1.164 2.568 2.605 2.568 1.44 0 2.606-1.15 2.606-2.568 0-.38-.088-.74-.238-1.065L34.3 3.204h12.21V.08H32.46V0L15.058 29.288z" fill="url(#paint2_linear)"/><path d="M19.247 54.2a2.515 2.515 0 00-.194.968c0 1.419 1.167 2.569 2.608 2.569 1.44 0 2.608-1.15 2.608-2.569 0-1.274-.944-2.328-2.18-2.53L5.772 24.465l6.523-10.944-2.81-1.617-7.491 12.498.003.005-.003.002L19.247 54.2z" fill="url(#paint3_linear)"/><path d="M64.728 43.677c0-1.419-1.168-2.568-2.609-2.568-1.44 0-2.608 1.15-2.608 2.568 0 .324.064.654.176.94l-16.96 28.87h-12.76v3.124h14.637v.021l17.892-30.428c1.261-.18 2.232-1.236 2.232-2.527z" fill="url(#paint4_linear)"/><path d="M42.999 62.778c.478.446 1.212.93 2.036.93a2.619 2.619 0 002.608-2.603 2.618 2.618 0 00-2.608-2.604c-.824 0-1.558.484-2.036.93H9.847L3.407 48.3.58 49.906l7.366 12.791.04-.012v.093h35.012z" fill="url(#paint5_linear)"/><defs><linearGradient id="paint0_linear" x1="64.162" y1="18.515" x2="67.428" y2="65.309" gradientUnits="userSpaceOnUse"><stop stop-color="#E00480"/><stop offset=".521" stop-color="#FB0010"/><stop offset="1" stop-color="#FF7A00"/></linearGradient><linearGradient id="paint1_linear" x1="31.383" y1="16.093" x2="77.163" y2="29.468" gradientUnits="userSpaceOnUse"><stop stop-color="#9816FF"/><stop offset="1" stop-color="red"/></linearGradient><linearGradient id="paint2_linear" x1="43.642" y1="0" x2="13.343" y2="32.655" gradientUnits="userSpaceOnUse"><stop stop-color="#9916FF"/><stop offset=".991" stop-color="#1961F3"/></linearGradient><linearGradient id="paint3_linear" x1="8.438" y1="11.761" x2="21.269" y2="55.198" gradientUnits="userSpaceOnUse"><stop stop-color="#1A5AFF"/><stop offset="1" stop-color="#1FC74D"/></linearGradient><linearGradient id="paint4_linear" x1="62.815" y1="42.709" x2="30.346" y2="77.255" gradientUnits="userSpaceOnUse"><stop stop-color="#FE6B02"/><stop offset="1" stop-color="#FFBE16"/></linearGradient><linearGradient id="paint5_linear" x1="47.728" y1="61.588" x2=".653" y2="50.751" gradientUnits="userSpaceOnUse"><stop stop-color="#FFB815"/><stop offset="1" stop-color="#06C954"/></linearGradient></defs></svg>