<svg width="213" height="33" fill="none" xmlns="http://www.w3.org/2000/svg"><path d="M0 32.145V1.12h6.676v31.025H0zM17.15 1.12h6.353l16.023 20.077V1.12h6.262v31.025h-5.893L23.457 11.402v20.743H17.15V1.12zm39.091 31.025V1.12h6.676v25.352h17.635v5.673h-24.31zm33.516 0V1.12h6.677v31.025h-6.677zm49.15-15.468c0 2.275-.414 4.402-1.243 6.382-.798 1.95-1.919 3.634-3.361 5.052-1.412 1.39-3.116 2.497-5.111 3.325-1.995.797-4.144 1.196-6.446 1.196-2.395 0-4.635-.413-6.723-1.24-2.087-.828-3.898-1.95-5.433-3.37a16.524 16.524 0 01-3.591-5.096c-.89-1.95-1.335-4.048-1.335-6.294 0-2.245.429-4.343 1.289-6.293.89-1.95 2.087-3.635 3.591-5.053 1.535-1.448 3.346-2.585 5.433-3.413 2.088-.827 4.313-1.24 6.677-1.24 2.67 0 5.187.516 7.551 1.55 2.363 1.035 4.312 2.453 5.847 4.255l-4.65 4.122c-1.136-1.3-2.456-2.29-3.96-2.97-1.473-.708-3.069-1.063-4.788-1.063-1.443 0-2.794.266-4.052.798a9.76 9.76 0 00-3.223 2.127c-.89.887-1.596 1.95-2.118 3.191-.491 1.212-.737 2.541-.737 3.99 0 1.447.261 2.792.783 4.033a9.952 9.952 0 002.164 3.235c.921.886 2.01 1.596 3.269 2.127 1.289.503 2.655.754 4.098.754 2.271 0 4.22-.606 5.847-1.817 1.658-1.212 2.686-2.763 3.085-4.654h-9.531v-5.585h16.668v1.95zm9.16 15.468V1.12h6.676v12.454h14.826V1.12h6.677v31.025h-6.677V19.469h-14.826v12.676h-6.676zm36.57-25.352V1.12H213v5.673h-10.82v25.352h-6.676V6.793h-10.867z" fill="#fff"/></svg>