<?xml version="1.0" encoding="utf-8"?><svg xmlns="http://www.w3.org/2000/svg" xmlns:xlink="http://www.w3.org/1999/xlink"><symbol viewBox="0 0 49 46" id="cms" xmlns="http://www.w3.org/2000/svg"><path d="M44.723.125H4.611A4.282 4.282 0 00.333 4.402v28.516a4.282 4.282 0 004.278 4.277h12.374l-1.9 5.704h-4.676a1.426 1.426 0 100 2.851h28.516a1.426 1.426 0 100-2.851h-4.676l-1.9-5.704h12.374A4.282 4.282 0 0049 32.918V4.402A4.282 4.282 0 0044.723.125zM18.09 42.899l1.901-5.704h9.351l1.901 5.704H18.091zm28.059-9.98c0 .785-.64 1.425-1.426 1.425H4.611c-.786 0-1.426-.64-1.426-1.426v-1.426H46.15v1.426zM15.882 20.445l-1.297-1.296 2.016-2.017 1.297 1.297c.46.46 1.172.55 1.733.22a9.9 9.9 0 012.542-1.058 1.425 1.425 0 001.068-1.38v-1.83h2.852v1.83c0 .65.439 1.217 1.068 1.38a9.91 9.91 0 012.542 1.058c.56.33 1.273.24 1.732-.22l1.297-1.297 2.017 2.017-1.297 1.297c-.46.46-.55 1.172-.22 1.732a9.899 9.899 0 011.058 2.542c.163.629.73 1.068 1.38 1.068h1.829v2.852h-5.847a7.137 7.137 0 00-6.985-8.555 7.137 7.137 0 00-6.985 8.555h-5.847v-2.852h1.829c.65 0 1.217-.44 1.38-1.068a9.91 9.91 0 011.058-2.542c.33-.56.24-1.273-.22-1.733zm13.062 6.769c0 .488-.084.97-.245 1.426h-8.064a4.282 4.282 0 014.032-5.703 4.282 4.282 0 014.277 4.277zM46.15 28.64h-5.8v-4.278c0-.787-.639-1.425-1.426-1.425h-2.203a12.746 12.746 0 00-.508-1.221l1.56-1.56a1.426 1.426 0 00-.001-2.016l-4.032-4.03a1.425 1.425 0 00-2.016 0l-1.559 1.559c-.399-.19-.806-.36-1.22-.508v-2.203c0-.787-.639-1.426-1.427-1.426h-5.703c-.787 0-1.425.639-1.425 1.426v2.203c-.415.147-.822.317-1.221.508l-1.56-1.56a1.425 1.425 0 00-2.016 0l-4.032 4.033a1.426 1.426 0 000 2.017l1.559 1.56c-.19.398-.36.805-.508 1.22h-2.203c-.787 0-1.426.638-1.426 1.425v4.278H3.185V4.402c0-.786.64-1.425 1.426-1.425h40.112c.786 0 1.426.64 1.426 1.425v24.239z"/><path d="M38.925 5.828a4.282 4.282 0 00-4.277 4.277 4.282 4.282 0 004.277 4.278 4.282 4.282 0 004.277-4.277 4.282 4.282 0 00-4.277-4.278zm0 5.703c-.786 0-1.426-.64-1.426-1.426a1.427 1.427 0 012.852 0c0 .787-.64 1.426-1.426 1.426z"/></symbol><symbol viewBox="0 0 72 72" id="conversation" xmlns="http://www.w3.org/2000/svg"><path d="M71.74 56.867l-4.18-12.17a30.506 30.506 0 003.087-13.315c.013-8.017-3.09-15.598-8.734-21.345-5.646-5.749-13.17-8.985-21.186-9.112C32.416.794 24.603 3.955 18.73 9.83c-5.664 5.663-8.805 13.13-8.905 21.108C4.243 35.14.95 41.692.96 48.691a22.27 22.27 0 002.14 9.475L.22 66.548a3.93 3.93 0 00.943 4.083 3.93 3.93 0 004.083.944l8.383-2.88a22.255 22.255 0 009.474 2.139h.035c7.103 0 13.706-3.38 17.893-9.099a30.507 30.507 0 0012.567-3.076l12.17 4.182a4.67 4.67 0 004.852-1.122 4.67 4.67 0 001.122-4.852zm-48.603 9.681h-.028a17.924 17.924 0 01-8.324-2.066 2.144 2.144 0 00-1.699-.133l-8.595 2.954 2.953-8.595a2.143 2.143 0 00-.132-1.699 17.926 17.926 0 01-2.067-8.325 17.857 17.857 0 014.979-12.392c1.036 6.317 4.046 12.137 8.713 16.72 4.631 4.55 10.454 7.446 16.736 8.393a17.822 17.822 0 01-12.536 5.143zm44.451-7.86a.388.388 0 01-.429.1L54.131 54.31a2.141 2.141 0 00-1.699.132 26.177 26.177 0 01-12.156 3.018h-.04c-14.185 0-25.9-11.522-26.125-25.702-.113-7.142 2.603-13.854 7.649-18.9 5.046-5.046 11.759-7.761 18.9-7.649 14.194.225 25.724 11.963 25.702 26.165a26.18 26.18 0 01-3.018 12.157 2.142 2.142 0 00-.133 1.698l4.477 13.03a.389.389 0 01-.1.428z"/><path d="M53.001 19.977H27.469a2.143 2.143 0 000 4.285h25.532a2.143 2.143 0 000-4.285zm0 8.813H27.469a2.143 2.143 0 100 4.285h25.532a2.143 2.143 0 000-4.286zm-9.828 8.812H27.468a2.143 2.143 0 100 4.286h15.704a2.143 2.143 0 000-4.286z"/></symbol><symbol viewBox="0 0 46 45" id="how-work" xmlns="http://www.w3.org/2000/svg"><path d="M42.716 33.226v-23.19l1.15-1.15a5.015 5.015 0 000-7.085 5.016 5.016 0 00-7.085 0l-1.15 1.15h-23.19A6.537 6.537 0 007.208.332 6.55 6.55 0 00.667 6.876a6.537 6.537 0 002.617 5.231v21.12a6.537 6.537 0 00-2.617 5.23A6.55 6.55 0 007.209 45a6.537 6.537 0 005.231-2.617h21.12A6.537 6.537 0 0038.79 45a6.55 6.55 0 006.543-6.543 6.537 6.537 0 00-2.617-5.23zM38.631 3.651a2.395 2.395 0 013.384 0 2.396 2.396 0 010 3.384l-2.123 2.123a4.978 4.978 0 00-1.26-2.123 4.979 4.979 0 00-2.123-1.261l2.122-2.123zm1.468 9.002v19.393a6.547 6.547 0 00-2.617 0V15.27l2.617-2.617zM36.78 8.886c.933.933.933 2.45 0 3.383l-7.784 7.784a6.58 6.58 0 00-3.384-3.383l7.784-7.784a2.395 2.395 0 013.384 0zm-9.96 12.873l-4.368 1.456 1.456-4.368a3.94 3.94 0 012.912 2.912zM13.62 5.568h19.394l-2.617 2.617H13.62a6.547 6.547 0 000-2.617zM7.21 2.95a3.93 3.93 0 013.925 3.926 3.93 3.93 0 01-3.926 3.926 3.93 3.93 0 01-3.925-3.926A3.93 3.93 0 017.209 2.95zm2.617 18.408h3.925v2.617H9.827c-.723 0-1.309.586-1.309 1.309v6.762a6.547 6.547 0 00-2.617 0V13.288a6.547 6.547 0 002.617 0v6.761c0 .723.586 1.309 1.309 1.309zM7.209 42.383a3.93 3.93 0 01-3.925-3.926 3.93 3.93 0 013.925-3.926 3.93 3.93 0 013.926 3.926 3.93 3.93 0 01-3.926 3.926zm25.17-2.617H13.62a6.546 6.546 0 000-2.618h6.762c.722 0 1.308-.586 1.308-1.308v-3.926h2.617v3.926c0 .722.586 1.308 1.309 1.308h6.762a6.547 6.547 0 000 2.617zm1.18-5.235h-6.633v-3.926c0-.722-.586-1.308-1.309-1.308h-5.234c-.723 0-1.309.586-1.309 1.308v3.926H12.44a6.602 6.602 0 00-1.305-1.305v-6.634h3.926c.723 0 1.309-.585 1.309-1.308v-5.235c0-.722-.586-1.308-1.309-1.308h-3.926v-6.634a6.602 6.602 0 001.305-1.305h15.34l-5.7 5.698v.001l-.006.006-.01.01c-.344.352-.165.075-2.924 8.353a1.309 1.309 0 001.655 1.655c8.245-2.748 8.017-2.595 8.353-2.924l.01-.01.006-.005h.001l5.698-5.699v15.34a6.6 6.6 0 00-1.305 1.304zm5.231 7.852a3.93 3.93 0 01-3.926-3.926 3.93 3.93 0 013.926-3.926 3.93 3.93 0 013.926 3.926 3.93 3.93 0 01-3.926 3.926z"/></symbol><symbol viewBox="0 0 72 74" id="leader" xmlns="http://www.w3.org/2000/svg"><path d="M64.965 24.815a9.791 9.791 0 002.31-6.324c0-5.424-4.413-9.837-9.837-9.837-5.424 0-9.837 4.413-9.837 9.837 0 .058.004.114.005.172a7.372 7.372 0 00-3.826-1.067h-1.907a9.823 9.823 0 003.802-7.759C45.675 4.413 41.262 0 35.838 0 30.414 0 26 4.413 26 9.837c0 3.15 1.49 5.958 3.801 7.76h-1.907a7.37 7.37 0 00-3.813 1.059c.001-.055.004-.11.004-.165 0-5.424-4.412-9.837-9.837-9.837-5.424 0-9.836 4.413-9.836 9.837a9.79 9.79 0 002.31 6.324C2.99 24.96 0 28.018 0 31.758v15.78c0 2.679 1.535 5.006 3.776 6.166l1.993 18.362A2.168 2.168 0 007.925 74h12.65a2.168 2.168 0 002.154-1.934l1.994-18.365c.184-.095.363-.197.537-.308l2.099 18.681A2.168 2.168 0 0029.513 74h12.65a2.17 2.17 0 002.154-1.926l2.097-18.698c.178.114.361.22.55.319l1.994 18.371A2.168 2.168 0 0051.114 74h12.649a2.168 2.168 0 002.155-1.934l1.994-18.361c2.24-1.16 3.776-3.488 3.776-6.166V31.758c0-3.74-2.991-6.797-6.723-6.943zM35.838 4.335a5.507 5.507 0 015.501 5.502 5.507 5.507 0 01-5.501 5.501 5.507 5.507 0 01-5.501-5.501 5.507 5.507 0 015.5-5.501zm31.514 27.423v15.78c0 1.442-1.196 2.615-2.665 2.615H50.19A2.693 2.693 0 0147.986 49a7.536 7.536 0 003.257-6.21V29.143h13.444c1.47 0 2.665 1.173 2.665 2.614zM57.438 12.99a5.507 5.507 0 015.501 5.501 5.507 5.507 0 01-5.5 5.501 5.507 5.507 0 01-5.502-5.5 5.507 5.507 0 015.501-5.502zM37.343 29.901l-1.505 1.95-1.505-1.95 1.505-3.847 1.505 3.847zm-12.575-4.782c0-1.758 1.403-3.187 3.127-3.187h4.9l-2.947 7.532a2.168 2.168 0 00.303 2.115l3.97 5.146a2.167 2.167 0 003.433 0l3.972-5.146c.465-.603.58-1.406.302-2.115l-2.946-7.532h4.899c1.724 0 3.127 1.43 3.127 3.187v17.67c0 1.757-1.403 3.187-3.127 3.187H27.895c-1.724 0-3.127-1.43-3.127-3.187V25.12zM14.25 12.99a5.507 5.507 0 015.501 5.501 5.507 5.507 0 01-5.5 5.501 5.507 5.507 0 01-5.501-5.5 5.507 5.507 0 015.5-5.502zM4.336 31.758c0-1.441 1.195-2.614 2.665-2.614h13.431v13.645a7.537 7.537 0 003.267 6.217 2.684 2.684 0 01-2.2 1.147H7c-1.47 0-2.665-1.173-2.665-2.614V31.758zM9.87 69.664L8.223 54.49h12.053L18.63 69.663H9.87zm30.354 0h-8.773l-2.174-19.352h13.118l-2.17 19.352zm12.835 0L51.411 54.49h12.054l-1.647 15.175h-8.759z"/></symbol><symbol viewBox="0 0 78 76" id="partnership" xmlns="http://www.w3.org/2000/svg"><path d="M77.33 24.017a2.286 2.286 0 000-3.232L58.128 1.583a2.285 2.285 0 00-3.232 0L48.89 7.588l-8.463 2.59-8.324-2.708-6.078-6.077a2.285 2.285 0 00-3.231 0L.669 23.514a2.286 2.286 0 000 3.232l6.028 6.027 2.214 8.43c-.826.571-1.116.993-2.562 2.403-4.202 4.201-1.393 11.36 4.469 11.677a6.838 6.838 0 006.465 6.464 6.838 6.838 0 006.465 6.465c.09 1.69.79 3.267 1.996 4.472a6.857 6.857 0 009.686 0l1.72-1.72.099-.103 2.783 2.782a6.859 6.859 0 009.689 0 6.796 6.796 0 001.956-4.023l.089.002a6.833 6.833 0 004.844-2.003 6.797 6.797 0 001.943-3.918c.068.002.137.005.205.005a6.831 6.831 0 004.844-2.003 6.799 6.799 0 001.933-3.834 6.831 6.831 0 005.184-1.995 6.847 6.847 0 000-9.688l-6.367-6.367 6.71-9.533 6.269-6.269zM8.75 28.363L5.517 25.13 24.408 6.24l3.234 3.233L8.75 28.363zm4.053 21.697a2.281 2.281 0 01-3.223 0 2.276 2.276 0 010-3.222l1.614-1.613c1.426-1.426 3.89-.414 3.89 1.61 0 1.44-1.139 1.915-2.281 3.225zm6.465 6.464a2.28 2.28 0 01-3.223 0 2.276 2.276 0 010-3.221l6.454-6.454a2.282 2.282 0 013.223 0c.89.89.89 2.33 0 3.221l-6.454 6.454zm6.465 6.465a2.281 2.281 0 01-3.223 0 2.276 2.276 0 010-3.222l4.841-4.84a2.281 2.281 0 013.223 0c.89.89.89 2.33 0 3.221l-4.841 4.84zm8.186 4.743l-1.721 1.72a2.281 2.281 0 01-3.223 0 2.276 2.276 0 010-3.22l1.721-1.722a2.281 2.281 0 013.223 0c.89.89.89 2.331 0 3.222zm33.569-18.315a2.278 2.278 0 010 3.225c-.89.89-2.337.89-3.226 0L58.89 47.27c-1.033-1.033-2.484-.959-3.354-.09a2.285 2.285 0 000 3.232l4.834 4.833a2.281 2.281 0 01-3.225 3.225c-1.72-1.728-1.431-1.434-4.831-4.836a2.285 2.285 0 00-3.234.002 2.285 2.285 0 000 3.233l4.357 4.357a2.274 2.274 0 01-.058 3.16c-.89.89-2.337.89-3.226 0l-4.296-4.296a2.285 2.285 0 00-3.232 3.232l.102.102.004.005 3.758 3.757a2.281 2.281 0 01-3.225 3.225L39.152 66.3c.002-.06.005-.12.005-.18 0-1.83-.713-3.55-2.006-4.843a6.81 6.81 0 00-2.173-1.462c2.064-3.775.153-8.676-4.18-9.873a6.829 6.829 0 00-1.844-6.326 6.858 6.858 0 00-9.686 0l-.275.275a6.842 6.842 0 00-5.67-3.88l-2.03-7.73L31.5 12.08l4.692 1.526-8.756 8.765v.001l-.021.021.001-.001-.004.003a6.92 6.92 0 000 9.793c2.7 2.7 7.093 2.7 9.794 0l6.526-6.525 23.756 23.754zM61.072 36.54L45.346 20.815a2.286 2.286 0 00-3.231 0l-8.142 8.142a2.358 2.358 0 01-3.33 0 2.352 2.352 0 01.013-3.344v.001l.003-.003-.001.001.001-.001 10.99-11.028 7.809-2.39 16.874 16.873-5.26 7.473zM53.334 9.607l3.177-3.177 15.972 15.971-3.177 3.176-15.972-15.97z"/></symbol><symbol viewBox="0 0 34 21" id="quotes" xmlns="http://www.w3.org/2000/svg"><path d="M30.317.783c-1.195 1.453-2.027 2.883-2.496 4.29-.446 1.406-.668 2.741-.668 4.007.797 0 1.605.059 2.426.176.82.117 1.546.305 2.18.562.656.258 1.183.586 1.581.985.422.398.633.879.633 1.441v5.133c0 .61-.21 1.137-.633 1.582-.398.445-.925.809-1.582 1.09a9.825 9.825 0 01-2.214.633c-.82.14-1.641.21-2.462.21-.867 0-1.722-.07-2.566-.21a9.825 9.825 0 01-2.215-.633c-.656-.281-1.183-.645-1.582-1.09a2.294 2.294 0 01-.597-1.582v-2.953c0-.656.035-1.559.105-2.707a25.54 25.54 0 01.598-3.727 22.765 22.765 0 011.37-3.902A9.751 9.751 0 0124.623.783h5.695zm-19.195 0c-1.196 1.453-2.04 2.883-2.532 4.29-.468 1.406-.703 2.741-.703 4.007.82 0 1.64.059 2.461.176.82.117 1.547.305 2.18.562.656.258 1.183.586 1.582.985.398.398.598.879.598 1.441v5.133c0 .61-.2 1.137-.598 1.582-.399.445-.926.809-1.582 1.09a9.825 9.825 0 01-2.215.633c-.82.14-1.652.21-2.496.21-.844 0-1.688-.07-2.531-.21a9.826 9.826 0 01-2.215-.633c-.656-.281-1.196-.645-1.617-1.09a2.294 2.294 0 01-.598-1.582v-2.953c0-.656.035-1.559.105-2.707a25.54 25.54 0 01.598-3.727A22.764 22.764 0 012.93 4.088 9.752 9.752 0 015.356.783h5.766z"/></symbol><symbol viewBox="0 0 24 24" id="send" xmlns="http://www.w3.org/2000/svg"><path d="M22.735 11.166L2.11.853a.937.937 0 00-1.013.113.938.938 0 00-.31.937l2.485 9.16h10.603v1.874H3.272L.75 22.07a.938.938 0 00.938 1.181.937.937 0 00.422-.103l20.625-10.313a.938.938 0 000-1.668z"/></symbol><symbol viewBox="0 0 80 80" id="stack" xmlns="http://www.w3.org/2000/svg"><path d="M79.314.687a2.343 2.343 0 00-1.99-.663L60.92 2.367a2.343 2.343 0 00-1.326 3.978l5.374 5.374-5.31 5.31c-5.331-4.574-12.255-7.341-19.813-7.341-16.8 0-30.469 13.668-30.469 30.468 0 4.059.8 8.032 2.337 11.72A2.343 2.343 0 009.77 52.92L.394 66.98a2.343 2.343 0 001.22 3.527l5.972 1.959 1.902 5.907a2.344 2.344 0 003.53 1.232l14.063-9.375a2.342 2.342 0 001.042-1.943 30.42 30.42 0 0011.72 2.337c16.801 0 30.47-13.668 30.47-30.468 0-7.559-2.768-14.482-7.342-19.813l5.31-5.31 5.374 5.373a2.344 2.344 0 003.978-1.325l2.344-16.406a2.344 2.344 0 00-.663-1.99zM12.999 73.986l-1.317-4.093a2.344 2.344 0 00-1.5-1.509l-4.177-1.37 6.715-10.072 8.088 2.306 2.256 8.028L13 73.986zm10.438-33.83c0-9.046 7.36-16.406 16.407-16.406 9.046 0 16.406 7.36 16.406 16.406 0 9.047-7.36 16.407-16.406 16.407a16.32 16.32 0 01-9.82-3.272l3.362-3.363a11.648 11.648 0 006.458 1.947c6.462 0 11.719-5.257 11.719-11.719 0-6.461-5.257-11.718-11.72-11.718-6.46 0-11.718 5.257-11.718 11.718 0 2.385.718 4.605 1.947 6.458l-3.363 3.363a16.322 16.322 0 01-3.271-9.82zm9.375 0a7.04 7.04 0 017.032-7.03 7.04 7.04 0 017.031 7.03 7.04 7.04 0 01-7.031 7.032 6.988 6.988 0 01-3.03-.688l4.687-4.687a2.344 2.344 0 10-3.314-3.314L33.5 43.186a6.988 6.988 0 01-.688-3.03zm7.032 25.781c-4.727 0-9.317-1.28-13.33-3.71l-1.19-4.236 1.36-1.361a20.991 20.991 0 0013.16 4.62c11.63 0 21.093-9.462 21.093-21.093 0-11.632-9.462-21.094-21.093-21.094-11.632 0-21.094 9.462-21.094 21.094 0 4.972 1.73 9.548 4.62 13.158l-1.392 1.393-4.19-1.195a25.683 25.683 0 01-3.726-13.357c0-14.215 11.566-25.78 25.782-25.78 14.215 0 25.78 11.565 25.78 25.78 0 14.216-11.564 25.781-25.78 25.781zm33.811-52.159l-7.433-7.433 8.672-1.239-1.239 8.672z"/></symbol></svg>