<svg width="99" height="66" fill="none" xmlns="http://www.w3.org/2000/svg"><rect x="4.873" width="88.927" height="57.255" rx="2" fill="#9815FE"/><path fill-rule="evenodd" clip-rule="evenodd" d="M36.952 58.69H0V64a2 2 0 002 2h94.673a2 2 0 002-2v-5.31H61.72l-.356 1.07a2 2 0 01-1.897 1.367H39.205a2 2 0 01-1.897-1.367l-.356-1.07z" fill="#9815FE"/><mask id="path-3-inside-1" fill="#fff"><rect x="8.527" y="4.873" width="81.618" height="48.727" rx=".5"/></mask><rect x="8.527" y="4.873" width="81.618" height="48.727" rx=".5" fill="#9815FE" stroke="#F9F9F9" stroke-width="4" mask="url(#path-3-inside-1)"/><circle cx="49.945" cy="2.436" r="1.218" fill="#fff"/><path d="M57.881 24.428c2.63 0 4.838-1.797 5.407-4.2h1.462c.69 0 1.25-.546 1.25-1.22 0-.675-.56-1.221-1.25-1.221h-1.462c-.569-2.403-2.776-4.2-5.407-4.2-2.63 0-4.837 1.797-5.406 4.2H33.25c-.69 0-1.25.546-1.25 1.22 0 .675.56 1.221 1.25 1.221h19.225c.569 2.403 2.776 4.2 5.406 4.2zm0-8.399c1.682 0 3.05 1.336 3.05 2.979 0 1.642-1.368 2.978-3.05 2.978-1.681 0-3.05-1.336-3.05-2.978 0-1.643 1.369-2.979 3.05-2.979zm-8.677 13.473H64.75c.69 0 1.25-.546 1.25-1.22 0-.675-.56-1.222-1.25-1.222H49.204c-.57-2.402-2.776-4.2-5.407-4.2-2.63 0-4.838 1.798-5.407 4.2h-5.14c-.69 0-1.25.547-1.25 1.221 0 .675.56 1.221 1.25 1.221h5.14c.569 2.403 2.776 4.2 5.407 4.2 2.63 0 4.838-1.797 5.407-4.2zm-5.407-4.2c1.682 0 3.05 1.337 3.05 2.98 0 1.642-1.368 2.978-3.05 2.978-1.682 0-3.05-1.336-3.05-2.979 0-1.642 1.368-2.978 3.05-2.978z" fill="#fff"/><path d="M52.397 42.975c2.63 0 4.838-1.797 5.407-4.2h6.946c.69 0 1.25-.546 1.25-1.22 0-.675-.56-1.221-1.25-1.221h-6.946c-.569-2.403-2.776-4.2-5.407-4.2-2.63 0-4.838 1.797-5.407 4.2H33.25c-.69 0-1.25.546-1.25 1.22 0 .675.56 1.221 1.25 1.221h13.74c.57 2.403 2.777 4.2 5.407 4.2zm0-8.399c1.682 0 3.05 1.336 3.05 2.979 0 1.642-1.368 2.978-3.05 2.978-1.682 0-3.05-1.336-3.05-2.978 0-1.643 1.368-2.979 3.05-2.979z" fill="#fff"/></svg>