<svg width="57" height="66" fill="none" xmlns="http://www.w3.org/2000/svg"><path d="M4.26 22.095c-2.353 0-4.26 1.828-4.26 4.082v19.05c0 2.256 1.907 4.083 4.26 4.083 2.352 0 4.26-1.828 4.26-4.082v-19.05c0-2.255-1.908-4.083-4.26-4.083zm48.275 0c-2.352 0-4.26 1.828-4.26 4.082v19.05c0 2.256 1.907 4.083 4.26 4.083 2.353 0 4.26-1.828 4.26-4.082v-19.05c0-2.255-1.907-4.083-4.26-4.083zm-8.519 0H12.779c-.784 0-1.42.61-1.42 1.36v21.773c0 3.234 2.373 6.02 5.68 6.668v9.661c0 2.255 1.906 4.082 4.259 4.082 2.353 0 4.26-1.827 4.26-4.082v-9.525h5.68v9.525c0 2.255 1.906 4.082 4.259 4.082 2.352 0 4.26-1.827 4.26-4.082v-9.661c3.305-.647 5.68-3.434 5.679-6.668V23.456c0-.752-.636-1.361-1.42-1.361zM38.72 5.962l3.461-3.315a1.32 1.32 0 00.035-1.924 1.464 1.464 0 00-2.043 0l-4.032 3.864a20.208 20.208 0 00-15.485 0L16.624.72a1.464 1.464 0 00-2.008.033 1.32 1.32 0 000 1.891l3.459 3.318c-4.217 2.674-6.742 7.205-6.716 12.05 0 .752.635 1.361 1.42 1.361h31.237c.784 0 1.42-.609 1.42-1.36.026-4.846-2.5-9.377-6.717-12.051z" fill="#1FC74D"/><path d="M21.298 13.93c.784 0 1.42-.609 1.42-1.36 0-.752-.636-1.361-1.42-1.361-.784 0-1.42.609-1.42 1.36 0 .752.636 1.361 1.42 1.361zm14.199 0c.784 0 1.42-.609 1.42-1.36 0-.752-.636-1.361-1.42-1.361-.785 0-1.42.609-1.42 1.36 0 .752.635 1.361 1.42 1.361z" fill="#fff"/></svg>