<svg width="95" height="95" fill="none" xmlns="http://www.w3.org/2000/svg"><path d="M34.256 45.144l-6.046 2.599 5.6 2.397 6.492-2.397-6.046-2.6zm-9.09 3.249l-.203 11.697 8.846 3.9V51.845l-8.643-3.452zm18.18 0l-7.994 3.046v11.454l7.994-3.25v-11.25zM52.884 12l-6.089 2.6 5.642 2.396L58.93 14.6 52.883 12zm-8.442 3.454V27.15l7.548 2.194.244-10.642-7.792-3.25zm16.883.65l-7.143 3.046v11.495l7.143-3.25V16.103zm-37.032 12.36l-6.046 2.6 5.6 2.396 6.492-2.397-6.046-2.6zm-9.09 3.25L15 43.41l8.846 3.9V35.164l-8.643-3.452zm18.18 0L25.39 34.76v11.453l7.994-3.25v-11.25zm10.39-3.682l-6.047 2.6 5.6 2.397 6.493-2.397-6.047-2.6zm-9.091 3.25l-.203 11.697 8.847 3.9V34.735l-8.644-3.453zm18.18 0l-7.994 3.046v11.454l7.995-3.25v-11.25zM71.91 12l-6.047 2.6 5.6 2.396 6.493-2.396L71.91 12zm-9.09 3.25l-.203 11.697 8.846 3.9V18.702l-8.644-3.454zm18.18 0l-7.994 3.046v11.453L81 26.5V15.25zM32.393 83l4.06-9.8h1.722l4.004 9.8h-1.596l-1.134-2.87h-4.382L33.919 83h-1.526zm3.164-4.088h3.416l-1.708-4.298-1.708 4.298zM45.545 83h-1.512l-2.142-9.8h1.512l1.526 7.49 2.212-7.49h1.4l2.212 7.49 1.526-7.49h1.456L51.593 83h-1.512l-2.268-7.7-2.268 7.7zm8.602-1.624l.896-1.036c.532.513 1.074.9 1.624 1.162.56.252 1.143.378 1.75.378.7 0 1.27-.154 1.708-.462.448-.308.672-.7.672-1.176 0-.43-.154-.76-.462-.994-.308-.243-.816-.425-1.526-.546l-1.638-.266c-.896-.15-1.568-.434-2.016-.854-.438-.43-.658-.994-.658-1.694 0-.85.331-1.53.994-2.044.663-.513 1.535-.77 2.618-.77.7 0 1.395.117 2.086.35.69.224 1.312.55 1.862.98l-.812 1.12a6.26 6.26 0 00-1.596-.896 4.441 4.441 0 00-1.61-.308c-.635 0-1.148.135-1.54.406-.392.27-.588.62-.588 1.05 0 .401.136.71.406.924.27.205.719.36 1.344.462l1.582.252c1.027.168 1.783.476 2.268.924.495.439.742 1.036.742 1.792 0 .448-.093.859-.28 1.232a2.71 2.71 0 01-.798.952 3.812 3.812 0 01-1.232.616 5.74 5.74 0 01-1.596.21c-.784 0-1.54-.154-2.268-.462a6.03 6.03 0 01-1.932-1.302z" fill="#fff"/></svg>