<svg width="95" height="95" fill="none" xmlns="http://www.w3.org/2000/svg"><g fill="#fff"><path d="M27.337 83v-9.8h3.458c.737 0 1.418.126 2.044.378.634.243 1.18.583 1.638 1.022.466.43.83.947 1.092 1.554.261.607.392 1.26.392 1.96a4.802 4.802 0 01-1.47 3.5c-.458.43-1.004.77-1.638 1.022a5.714 5.714 0 01-2.058.364h-3.458zm3.486-8.484h-2.016v7.168h2.016c.504 0 .98-.089 1.428-.266a3.514 3.514 0 001.918-1.89c.186-.439.28-.91.28-1.414 0-.504-.094-.975-.28-1.414a3.405 3.405 0 00-.77-1.148 3.24 3.24 0 00-1.148-.756 3.675 3.675 0 00-1.428-.28zM37.354 83v-7.126h1.4v.91c.215-.345.49-.607.826-.784.336-.187.714-.28 1.134-.28.15 0 .28.01.392.028.112.019.22.047.322.084v1.26a2.884 2.884 0 00-.406-.112 2.137 2.137 0 00-.42-.042c-.41 0-.779.112-1.106.336-.317.215-.564.537-.742.966V83h-1.4zm6.486-7.126v4.228c0 .56.158 1.003.476 1.33.326.327.756.49 1.288.49.373 0 .709-.08 1.008-.238a2.13 2.13 0 00.742-.7v-5.11h1.4V83h-1.4v-.714c-.28.28-.602.495-.966.644a3.18 3.18 0 01-1.176.21c-.812 0-1.48-.261-2.002-.784-.514-.523-.77-1.195-.77-2.016v-4.466h1.4zm6.571 10.024V75.874h1.386v.686c.29-.261.62-.457.994-.588.373-.14.77-.21 1.19-.21.504 0 .975.098 1.414.294a3.44 3.44 0 011.134.77c.327.327.583.714.77 1.162.187.448.28.929.28 1.442 0 .513-.093.999-.28 1.456a3.561 3.561 0 01-.77 1.162 3.58 3.58 0 01-1.148.784 3.67 3.67 0 01-1.428.28 3.67 3.67 0 01-1.148-.182 3.475 3.475 0 01-.994-.518v3.486h-1.4zm3.388-8.918c-.401 0-.775.075-1.12.224-.345.15-.635.36-.868.63v3.22c.224.261.509.467.854.616.355.15.733.224 1.134.224.681 0 1.25-.233 1.708-.7.467-.467.7-1.05.7-1.75s-.233-1.283-.7-1.75a2.301 2.301 0 00-1.708-.714zm7.438 6.146c-.774 0-1.404-.2-1.89-.602-.485-.401-.728-.924-.728-1.568 0-.672.257-1.2.77-1.582.514-.392 1.218-.588 2.114-.588.346 0 .682.037 1.008.112.327.065.64.159.938.28v-.756c0-.504-.15-.882-.448-1.134-.298-.252-.728-.378-1.288-.378-.326 0-.667.051-1.022.154a7.147 7.147 0 00-1.19.448l-.518-1.05a7.65 7.65 0 011.512-.546 5.71 5.71 0 011.414-.182c.924 0 1.638.224 2.142.672.514.439.77 1.064.77 1.876V83H63.45v-.616a3.328 3.328 0 01-1.022.56c-.364.121-.76.182-1.19.182zm-1.274-2.198a1 1 0 00.434.84c.299.215.686.322 1.162.322.374 0 .719-.056 1.036-.168.318-.112.602-.28.854-.504v-1.232a3.154 3.154 0 00-.854-.322 4.034 4.034 0 00-.98-.112c-.504 0-.905.107-1.204.322-.298.215-.448.5-.448.854zm7.871-8.036V83h-1.4v-9.8l1.4-.308z"/><path fill-rule="evenodd" clip-rule="evenodd" d="M43.764 11.056c-.644 2.582-2.405 4.237-7.666 7.207C27.62 23.05 23 30.363 23 39c0 9.786 5.951 18.172 15.48 21.812 4.025 1.538 11.263 1.589 15.442.108 5.627-1.992 10.484-6.144 12.843-10.977 1.724-3.532 2.228-5.9 2.235-10.497.01-6.974-1.998-11.917-6.808-16.76-2.503-2.52-4.123-3.662-8.07-5.688-4.041-2.072-5.386-3.031-7.392-5.266L44.278 9l-.514 2.056zm.961 28.9c.827.28 2.609 1.258 3.959 2.173 3.214 2.179 5.05 3.119 6.09 3.119.466 0 2.517-1.101 4.558-2.446 4.12-2.716 5.892-3.085 7.292-1.52 1.115 1.244 1.102 5.749-.023 7.981-2.152 4.275-3.832 4.57-7.324 1.284-4.587-4.317-4.425-4.307-10.689-.677-5.18 3.001-6.945 3.586-9.905 3.278-2.666-.278-4.26-1.17-4.996-2.797-.7-1.55-.641-4.894.111-6.353 1.906-3.693 6.708-5.47 10.927-4.041zm11.613 12.097c.65.88.77 1.365.428 1.71-.343.346-.68.195-1.187-.536-.95-1.368-3.338-1.367-5.174.002-.753.561-1.478.911-1.61.777-.48-.483.311-1.633 1.733-2.52 2.076-1.292 4.623-1.044 5.81.567zm.759 5.755c-3.177 2.593-13.301 2.14-13.301-.596 0-.968.52-1.018 2.123-.203 2.588 1.317 7.667 1.18 10.641-.287 1.496-.738 1.862.003.537 1.086z"/></g></svg>