<svg width="95" height="95" fill="none" xmlns="http://www.w3.org/2000/svg"><g fill="#fff"><path d="M26.749 83v-9.8h7.238v1.288h-5.768v3.01h3.808v1.26h-3.808V83h-1.47zm9.64-10.108V83h-1.4v-9.8l1.4-.308zm3.02 2.982v4.228c0 .56.16 1.003.477 1.33.327.327.756.49 1.288.49.373 0 .71-.08 1.008-.238a2.12 2.12 0 00.742-.7v-5.11h1.4V83h-1.4v-.714c-.28.28-.602.495-.966.644a3.18 3.18 0 01-1.176.21c-.812 0-1.48-.261-2.002-.784-.513-.523-.77-1.195-.77-2.016v-4.466h1.4zm7.496 5.362V77.05h-1.512v-1.176h1.512v-1.82l1.386-.336v2.156h2.1v1.176h-2.1v3.864c0 .364.08.62.238.77.168.15.439.224.812.224.196 0 .369-.01.518-.028a2.96 2.96 0 00.504-.14v1.176a3.605 3.605 0 01-.658.154 4.447 4.447 0 01-.672.056c-.69 0-1.218-.159-1.582-.476-.364-.327-.546-.798-.546-1.414zm5.578 0V77.05h-1.512v-1.176h1.512v-1.82l1.386-.336v2.156h2.1v1.176h-2.1v3.864c0 .364.08.62.238.77.168.15.44.224.812.224.196 0 .37-.01.518-.028.16-.028.327-.075.504-.14v1.176a3.605 3.605 0 01-.658.154 4.447 4.447 0 01-.672.056c-.69 0-1.218-.159-1.582-.476-.364-.327-.546-.798-.546-1.414zm10.541.952c-.41.317-.84.555-1.288.714-.448.15-.938.224-1.47.224a3.851 3.851 0 01-1.47-.28 3.88 3.88 0 01-1.19-.784 3.632 3.632 0 01-.798-1.162 3.851 3.851 0 01-.28-1.47c0-.513.094-.994.28-1.442a3.68 3.68 0 01.756-1.162 3.437 3.437 0 011.134-.77 3.393 3.393 0 011.4-.294c.486 0 .938.098 1.358.294.43.187.794.448 1.092.784.308.327.551.719.728 1.176.178.457.266.947.266 1.47v.406h-5.628a2.4 2.4 0 00.812 1.47c.448.383.98.574 1.596.574.346 0 .677-.056.994-.168.318-.112.588-.266.812-.462l.896.882zm-2.954-5.25c-.532 0-.998.177-1.4.532-.392.355-.639.812-.742 1.372h4.228a2.419 2.419 0 00-.742-1.358 1.888 1.888 0 00-1.344-.546zM64.876 83v-7.126h1.4v.91c.215-.345.49-.607.826-.784.336-.187.714-.28 1.134-.28.15 0 .28.01.392.028.112.019.22.047.322.084v1.26a2.888 2.888 0 00-.406-.112 2.137 2.137 0 00-.42-.042c-.41 0-.78.112-1.106.336-.317.215-.565.537-.742.966V83h-1.4z"/><path fill-rule="evenodd" clip-rule="evenodd" d="M40.528 27.5L29 39l3.483 3.471 3.482 3.472 15.017-14.971L66 16H52.056L40.528 27.5zm5.287 15.813l-6.235 6.229 6.235 6.229L52.049 62h13.939l-6.121-6.116-6.122-6.117 6.008-5.975c3.305-3.287 6.009-6.14 6.009-6.342 0-.202-3.086-.367-6.856-.367h-6.857l-6.234 6.23z"/></g></svg>