<svg width="95" height="95" fill="none" xmlns="http://www.w3.org/2000/svg"><g fill="#fff"><path d="M48.239 78.226c0 .7-.126 1.353-.378 1.96a4.754 4.754 0 01-1.008 1.554c-.43.439-.943.784-1.54 1.036a4.782 4.782 0 01-1.904.378 5.14 5.14 0 01-2.002-.392 5.107 5.107 0 01-1.624-1.064 5.226 5.226 0 01-1.092-1.61 5.104 5.104 0 01-.392-1.988c0-.7.13-1.358.392-1.974.27-.625.63-1.162 1.078-1.61a4.99 4.99 0 011.624-1.078 5.14 5.14 0 012.002-.392c.774 0 1.507.15 2.198.448.69.299 1.274.714 1.75 1.246l-1.008.98a3.623 3.623 0 00-1.33-.966 3.848 3.848 0 00-3.038-.07 3.49 3.49 0 00-1.148.784c-.318.327-.57.719-.756 1.176a3.921 3.921 0 00-.266 1.456c0 .523.093 1.013.28 1.47.186.448.438.84.756 1.176a3.78 3.78 0 001.148.784c.448.187.928.28 1.442.28.868 0 1.605-.261 2.212-.784a3.032 3.032 0 001.064-2.016h-3.262v-1.288h4.802v.504zm2.072-3.5a.822.822 0 01-.602-.252.869.869 0 01-.252-.616c0-.233.084-.434.252-.602a.8.8 0 01.602-.266.8.8 0 01.602.266.8.8 0 01.266.602.846.846 0 01-.266.616.822.822 0 01-.602.252zm.7 1.148V83h-1.4v-7.126h1.4zm2.573 5.362V77.05h-1.512v-1.176h1.512v-1.82l1.386-.336v2.156h2.1v1.176h-2.1v3.864c0 .364.08.62.238.77.168.15.439.224.812.224.196 0 .369-.01.518-.028a2.96 2.96 0 00.504-.14v1.176a3.605 3.605 0 01-.658.154 4.447 4.447 0 01-.672.056c-.69 0-1.218-.159-1.582-.476-.364-.327-.546-.798-.546-1.414z"/><path fill-rule="evenodd" clip-rule="evenodd" d="M43.281 13.628c-1.515 1.445-2.755 2.851-2.755 3.124 0 .274 1.196 1.707 2.66 3.184 2.187 2.211 2.934 2.687 4.22 2.687 2.133 0 4.278 2.131 4.278 4.251 0 1.242.505 2.043 2.659 4.22 2.145 2.167 2.948 2.687 4.158 2.687 3.685 0 5.507 4.456 2.78 6.801-1.601 1.378-3.936 1.448-5.32.16-1.095-1.022-1.733-2.86-1.344-3.875.141-.368-.913-1.78-2.507-3.357l-2.75-2.722v7.308c0 4.433.178 7.308.453 7.308.613 0 1.871 2.508 1.871 3.731 0 1.527-2.453 3.707-4.17 3.707-3.377 0-5.08-4.617-2.571-6.974 1.14-1.071 1.162-1.223 1.162-8.136 0-6.912-.022-7.064-1.162-8.136-.823-.773-1.162-1.58-1.162-2.767 0-1.447-.416-2.088-3.034-4.683l-3.034-3.007-8.357 8.393C22.343 34.576 21 36.142 21 37.284c0 1.16 1.865 3.224 12.678 14.038C43.4 61.043 46.623 64 47.5 64 49.157 64 74 39.157 74 37.5c0-.877-2.957-4.1-12.678-13.822C50.756 13.113 48.426 11 47.34 11c-.95 0-2.052.714-4.059 2.628z"/></g></svg>