<svg width="95" height="95" fill="none" xmlns="http://www.w3.org/2000/svg"><g fill="#fff"><path d="M34.943 78.226c0 .7-.126 1.353-.378 1.96a4.754 4.754 0 01-1.008 1.554c-.43.439-.943.784-1.54 1.036a4.782 4.782 0 01-1.904.378 5.14 5.14 0 01-2.002-.392 5.107 5.107 0 01-1.624-1.064 5.226 5.226 0 01-1.092-1.61 5.104 5.104 0 01-.392-1.988c0-.7.13-1.358.392-1.974.27-.625.63-1.162 1.078-1.61a4.99 4.99 0 011.624-1.078 5.14 5.14 0 012.002-.392c.774 0 1.507.15 2.198.448.69.299 1.274.714 1.75 1.246l-1.008.98a3.623 3.623 0 00-1.33-.966 3.848 3.848 0 00-3.038-.07 3.49 3.49 0 00-1.148.784c-.318.327-.57.719-.756 1.176A3.921 3.921 0 0026.5 78.1c0 .523.093 1.013.28 1.47.186.448.438.84.756 1.176a3.78 3.78 0 001.148.784c.448.187.928.28 1.442.28.868 0 1.605-.261 2.212-.784a3.032 3.032 0 001.064-2.016H30.14v-1.288h4.802v.504zm2.072-3.5a.822.822 0 01-.602-.252.869.869 0 01-.252-.616c0-.233.084-.434.252-.602a.8.8 0 01.602-.266.8.8 0 01.602.266.8.8 0 01.266.602.846.846 0 01-.266.616.822.822 0 01-.602.252zm.7 1.148V83h-1.4v-7.126h1.4zm2.573 5.362V77.05h-1.512v-1.176h1.512v-1.82l1.386-.336v2.156h2.1v1.176h-2.1v3.864c0 .364.08.62.238.77.168.15.439.224.812.224.196 0 .369-.01.518-.028a2.96 2.96 0 00.504-.14v1.176a3.605 3.605 0 01-.658.154 4.447 4.447 0 01-.672.056c-.69 0-1.218-.159-1.582-.476-.364-.327-.546-.798-.546-1.414zM44.974 83v-9.8h1.47v4.2h5.207v-4.2h1.47V83h-1.47v-4.27h-5.208V83h-1.47zm11.348-7.126v4.228c0 .56.159 1.003.476 1.33.327.327.756.49 1.288.49.373 0 .71-.08 1.008-.238a2.12 2.12 0 00.742-.7v-5.11h1.4V83h-1.4v-.714c-.28.28-.602.495-.966.644a3.18 3.18 0 01-1.176.21c-.812 0-1.48-.261-2.002-.784-.513-.523-.77-1.195-.77-2.016v-4.466h1.4zm13.74 3.556c0 .513-.094.999-.28 1.456a3.561 3.561 0 01-.77 1.162 3.58 3.58 0 01-1.149.784 3.67 3.67 0 01-1.428.28 3.59 3.59 0 01-1.148-.182 3.482 3.482 0 01-1.008-.532V83h-1.386v-9.8l1.4-.308v3.654a3.03 3.03 0 01.994-.574c.374-.14.766-.21 1.176-.21.504 0 .976.098 1.414.294a3.44 3.44 0 011.134.77c.327.327.584.714.77 1.162.187.448.28.929.28 1.442zm-3.78-2.45c-.402 0-.775.075-1.12.224-.346.15-.635.36-.869.63v3.22c.224.261.509.467.854.616.355.15.733.224 1.134.224.682 0 1.251-.233 1.708-.7.467-.467.7-1.05.7-1.75s-.233-1.283-.7-1.75a2.301 2.301 0 00-1.708-.714z"/><path fill-rule="evenodd" clip-rule="evenodd" d="M42.906 13.333c-5.299.929-11.547 4.18-14.89 7.749-7.982 8.517-9.335 22.415-3.122 32.059 4.251 6.6 14.45 13.16 15.635 10.057.16-.42.291-1.614.291-2.654v-1.89l-2.519-.002c-2.997-.002-5.313-1.236-6.506-3.465-.447-.834-1.514-2.321-2.371-3.304-1.884-2.16-1.915-2.395-.312-2.395.84 0 1.976.726 3.479 2.223 2.493 2.482 3.685 3.084 6.116 3.084 1.746 0 2.081-.389 2.251-2.61.095-1.241-.111-1.407-2.794-2.245-3.398-1.063-6.521-3.558-8.03-6.413-.817-1.55-1.053-2.813-1.05-5.617.003-3.099.202-3.966 1.381-6.031 1.197-2.097 1.365-2.854 1.282-5.79-.064-2.28.126-3.677.584-4.302.626-.856.85-.877 2.96-.284 1.255.354 2.888 1.155 3.627 1.78 1.28 1.083 1.506 1.114 4.623.63a21.942 21.942 0 016.543-.043c3.062.437 3.373.393 4.976-.7 1.57-1.072 4.42-2.137 5.737-2.143.965-.005 1.748 2.8 1.501 5.382-.2 2.09-.014 2.903 1.18 5.18 1.306 2.49 1.404 3.026 1.256 6.84-.138 3.57-.344 4.416-1.504 6.176-1.571 2.386-4.87 4.634-8.254 5.624l-2.399.702.24 5.912c.132 3.252.415 6.184.628 6.515 1.901 2.954 12.89-4.858 16.512-11.738 4.493-8.534 3.972-19.304-1.305-26.966-5.738-8.332-16.301-12.977-25.746-11.321z"/></g></svg>