<svg width="95" height="95" fill="none" xmlns="http://www.w3.org/2000/svg"><g fill="#fff"><path fill-rule="evenodd" clip-rule="evenodd" d="M64.244 56.628L68 15H26.998l3.756 41.628 16.902 4.695 16.588-4.695zm-4.069-32.864h-25.04l.94 15.336h17.527l-.625 6.26-5.321 1.565-5.634-1.565-.626-3.756h-5.008l.939 7.512 10.329 3.13 10.015-3.13 1.252-15.336h-17.84l-.626-4.695h19.092l.626-5.321z"/><path d="M24.602 83v-9.8h1.47v4.2h5.208v-4.2h1.47V83h-1.47v-4.27h-5.208V83h-1.47zm9.389-8.498V73.2h8.358v1.302h-3.444V83h-1.47v-8.498H33.99zM48.605 82.3l-3.654-7.28V83h-1.372v-9.8h1.96l3.08 6.258 3.066-6.258h1.96V83h-1.386v-7.994L48.605 82.3zm7.033.7v-9.8h1.47v8.498h5.642V83h-7.112zm8.501-4.844l.238-4.956h5.978v1.19h-4.83l-.126 2.828a5.712 5.712 0 011.946-.336c1.055 0 1.909.28 2.562.84.654.55.98 1.27.98 2.156 0 .97-.345 1.76-1.036 2.366-.69.597-1.591.896-2.702.896a5.532 5.532 0 01-1.932-.336 4.975 4.975 0 01-1.624-.98l.854-.952c.439.383.873.663 1.302.84.43.168.906.252 1.428.252.681 0 1.232-.187 1.652-.56.43-.373.644-.859.644-1.456 0-.57-.228-1.031-.686-1.386-.448-.364-1.027-.546-1.736-.546-.345 0-.69.037-1.036.112a5.196 5.196 0 00-1.008.308l-.868-.28z"/></g></svg>