<svg width="95" height="95" fill="none" xmlns="http://www.w3.org/2000/svg"><g fill="#fff"><path fill-rule="evenodd" clip-rule="evenodd" d="M40.99 51.351s-1.894 1.102 1.35 1.474c3.93.45 5.938.385 10.268-.434 0 0 1.14.714 2.73 1.33-9.708 4.161-21.973-.24-14.348-2.37zm-1.186-5.429s-2.125 1.573 1.121 1.909c4.199.433 7.513.468 13.251-.636 0 0 .792.805 2.04 1.244-11.738 3.433-24.81.27-16.412-2.517zm10-9.21c2.394 2.755-.627 5.233-.627 5.233s6.075-3.136 3.285-7.063c-2.605-3.66-4.603-5.48 6.212-11.752 0 0-16.977 4.239-8.87 13.582z"/><path fill-rule="evenodd" clip-rule="evenodd" d="M62.645 55.367s1.402 1.156-1.544 2.05c-5.603 1.697-23.323 2.209-28.245.068-1.768-.77 1.549-1.838 2.593-2.063 1.088-.236 1.71-.193 1.71-.193-1.968-1.386-12.719 2.721-5.46 3.9 19.792 3.209 36.08-1.445 30.946-3.762zm-20.743-15.07s-9.013 2.14-3.191 2.92c2.459.328 7.357.252 11.923-.13 3.73-.314 7.474-.984 7.474-.984s-1.314.564-2.266 1.213c-9.154 2.408-26.834 1.287-21.744-1.174 4.304-2.082 7.804-1.846 7.804-1.846zm16.17 9.036c9.303-4.833 5.002-9.48 1.998-8.853-.734.153-1.064.286-1.064.286s.274-.43.795-.613c5.94-2.088 10.509 6.159-1.916 9.425 0 0 .143-.13.186-.245zM52.462 13s5.151 5.155-4.888 13.08c-8.051 6.359-1.836 9.983-.002 14.126-4.7-4.24-8.149-7.973-5.836-11.447C45.132 23.66 54.54 21.187 52.462 13z"/><path fill-rule="evenodd" clip-rule="evenodd" d="M42.817 62.436c8.93.571 22.645-.317 22.97-4.543 0 0-.624 1.602-7.38 2.873-7.623 1.434-17.026 1.267-22.6.347 0 0 1.142.946 7.01 1.323z"/><path d="M39.959 79.262c0 1.176-.355 2.119-1.064 2.828-.7.71-1.634 1.064-2.8 1.064-.896 0-1.67-.233-2.324-.7-.644-.467-1.11-1.12-1.4-1.96l1.344-.532c.233.616.55 1.078.952 1.386.401.308.882.462 1.442.462.71 0 1.283-.233 1.722-.7.438-.476.658-1.101.658-1.876V73.2h1.47v6.062zm3.894 3.864c-.774 0-1.404-.2-1.89-.602-.485-.401-.728-.924-.728-1.568 0-.672.257-1.2.77-1.582.514-.392 1.218-.588 2.114-.588.346 0 .682.037 1.008.112.327.065.64.159.938.28v-.756c0-.504-.149-.882-.448-1.134-.298-.252-.728-.378-1.288-.378-.326 0-.667.051-1.022.154a7.147 7.147 0 00-1.19.448l-.518-1.05a7.65 7.65 0 011.512-.546 5.71 5.71 0 011.414-.182c.924 0 1.638.224 2.142.672.514.439.77 1.064.77 1.876V83h-1.372v-.616a3.328 3.328 0 01-1.022.56c-.364.121-.76.182-1.19.182zm-1.274-2.198a1 1 0 00.434.84c.3.215.686.322 1.162.322.374 0 .72-.056 1.036-.168.318-.112.602-.28.854-.504v-1.232a3.154 3.154 0 00-.854-.322 4.034 4.034 0 00-.98-.112c-.504 0-.905.107-1.204.322-.298.215-.448.5-.448.854zM50.964 83l-3.08-7.126h1.54l2.226 5.334 2.226-5.334h1.498L52.294 83h-1.33zm7.532.126c-.775 0-1.405-.2-1.89-.602-.485-.401-.728-.924-.728-1.568 0-.672.257-1.2.77-1.582.513-.392 1.218-.588 2.114-.588.345 0 .681.037 1.008.112.327.065.64.159.938.28v-.756c0-.504-.15-.882-.448-1.134-.299-.252-.728-.378-1.288-.378a3.66 3.66 0 00-1.022.154 7.144 7.144 0 00-1.19.448l-.518-1.05a7.65 7.65 0 011.512-.546 5.709 5.709 0 011.414-.182c.924 0 1.638.224 2.142.672.513.439.77 1.064.77 1.876V83h-1.372v-.616a3.328 3.328 0 01-1.022.56c-.364.121-.76.182-1.19.182zm-1.274-2.198a1 1 0 00.434.84c.299.215.686.322 1.162.322.373 0 .719-.056 1.036-.168.317-.112.602-.28.854-.504v-1.232a3.155 3.155 0 00-.854-.322 4.035 4.035 0 00-.98-.112c-.504 0-.905.107-1.204.322-.299.215-.448.5-.448.854z"/></g></svg>