<svg width="95" height="95" fill="none" xmlns="http://www.w3.org/2000/svg"><g fill="#fff"><path fill-rule="evenodd" clip-rule="evenodd" d="M33.266 22.755c-2.546 1.28-3.1 2.785-2.958 8.038l.124 4.556 5.638-3.13c5.095-2.828 5.65-3.253 5.757-4.406.239-2.582-2.959-5.81-5.757-5.813-.715 0-1.977.34-2.804.755zm11.153 7.58l-14.204 7.862v6.214c0 5.481.08 6.182.684 5.952 2.593-.992 33.117-18.258 33.863-19.155 2.939-3.53.31-8.812-4.36-8.757-1.476.018-4.192 1.357-15.983 7.884zm4.11 13.247c-2.45 1.377-4.554 2.6-4.673 2.72-.264.263 12.66 12.099 13.983 12.805 1.313.7 3.838.629 5.353-.152 2.41-1.243 3.372-5.084 1.874-7.492-.943-1.517-10.844-10.45-11.54-10.413-.297.016-2.546 1.156-4.997 2.532zm-12.335 6.713c-3.033 1.675-5.713 3.247-5.955 3.492-.724.733.295 3.489 1.737 4.698 1.44 1.209 3.73 1.797 5.385 1.383 1.707-.427 4.074-2.757 4.358-4.29.14-.754.194-2.937.121-4.85l-.131-3.48-5.515 3.047z"/><path d="M30.515 83v-9.8h1.47v4.564l4.746-4.564h1.849l-5.054 4.732L38.746 83H36.73l-4.746-4.662V83h-1.47zm8.014-3.57a3.593 3.593 0 011.078-2.618 3.608 3.608 0 011.176-.784 3.657 3.657 0 011.456-.294c.514 0 .994.098 1.442.294.458.187.85.448 1.176.784.336.327.598.719.784 1.176.196.448.294.929.294 1.442a3.69 3.69 0 01-.294 1.47c-.186.448-.448.84-.784 1.176a3.708 3.708 0 01-1.176.784 3.71 3.71 0 01-1.442.28c-.513 0-.998-.093-1.456-.28a3.928 3.928 0 01-1.176-.784 3.8 3.8 0 01-.798-1.176 3.851 3.851 0 01-.28-1.47zm3.71 2.478c.644 0 1.19-.238 1.638-.714.458-.485.686-1.073.686-1.764 0-.69-.228-1.274-.686-1.75a2.164 2.164 0 00-1.638-.714c-.644 0-1.194.238-1.652.714-.457.476-.686 1.06-.686 1.75s.224 1.279.672 1.764a2.224 2.224 0 001.666.714zm5.507-.672V77.05h-1.512v-1.176h1.512v-1.82l1.386-.336v2.156h2.1v1.176h-2.1v3.864c0 .364.08.62.238.77.168.15.439.224.812.224.196 0 .369-.01.518-.028a2.96 2.96 0 00.504-.14v1.176a3.605 3.605 0 01-.658.154 4.447 4.447 0 01-.672.056c-.69 0-1.218-.159-1.582-.476-.364-.327-.546-.798-.546-1.414zm5.917-8.344V83h-1.4v-9.8l1.4-.308zm2.35 1.834a.822.822 0 01-.603-.252.869.869 0 01-.252-.616c0-.233.084-.434.252-.602a.8.8 0 01.602-.266.8.8 0 01.602.266.8.8 0 01.266.602.845.845 0 01-.266.616.822.822 0 01-.602.252zm.7 1.148V83h-1.4v-7.126h1.4zM58.36 83v-7.126h1.4v.714c.28-.28.597-.49.952-.63a3.09 3.09 0 011.19-.224c.812 0 1.48.261 2.002.784.523.513.784 1.18.784 2.002V83h-1.4v-4.242c0-.56-.163-.999-.49-1.316-.317-.327-.742-.49-1.274-.49-.373 0-.714.08-1.022.238a2.005 2.005 0 00-.742.686V83h-1.4z"/></g></svg>