<svg width="95" height="95" fill="none" xmlns="http://www.w3.org/2000/svg"><g fill="#fff"><path d="M25.3 83v-9.8h1.47v8.498h5.642V83H25.3zm10.685.126c-.774 0-1.404-.2-1.89-.602-.485-.401-.728-.924-.728-1.568 0-.672.257-1.2.77-1.582.514-.392 1.218-.588 2.114-.588.346 0 .682.037 1.008.112.327.065.64.159.938.28v-.756c0-.504-.15-.882-.448-1.134-.298-.252-.728-.378-1.288-.378a3.67 3.67 0 00-1.022.154 7.14 7.14 0 00-1.19.448l-.518-1.05a7.65 7.65 0 011.512-.546 5.709 5.709 0 011.414-.182c.924 0 1.638.224 2.142.672.514.439.77 1.064.77 1.876V83h-1.372v-.616a3.33 3.33 0 01-1.022.56c-.364.121-.76.182-1.19.182zm-1.274-2.198a1 1 0 00.434.84c.299.215.686.322 1.162.322.374 0 .719-.056 1.036-.168.318-.112.602-.28.854-.504v-1.232a3.156 3.156 0 00-.854-.322 4.036 4.036 0 00-.98-.112c-.504 0-.905.107-1.204.322-.298.215-.448.5-.448.854zM41.182 83v-7.126h1.4v.91c.215-.345.49-.607.826-.784.336-.187.714-.28 1.134-.28.15 0 .28.01.392.028.112.019.22.047.322.084v1.26a2.884 2.884 0 00-.406-.112 2.137 2.137 0 00-.42-.042c-.41 0-.779.112-1.106.336-.317.215-.564.537-.742.966V83h-1.4zm7.149.126c-.775 0-1.405-.2-1.89-.602-.485-.401-.728-.924-.728-1.568 0-.672.257-1.2.77-1.582.513-.392 1.218-.588 2.114-.588.345 0 .681.037 1.008.112.327.065.64.159.938.28v-.756c0-.504-.15-.882-.448-1.134-.299-.252-.728-.378-1.288-.378a3.67 3.67 0 00-1.022.154 7.14 7.14 0 00-1.19.448l-.518-1.05a7.65 7.65 0 011.512-.546 5.709 5.709 0 011.414-.182c.924 0 1.638.224 2.142.672.513.439.77 1.064.77 1.876V83h-1.372v-.616a3.33 3.33 0 01-1.022.56c-.364.121-.76.182-1.19.182zm-1.274-2.198a1 1 0 00.434.84c.299.215.686.322 1.162.322.373 0 .719-.056 1.036-.168.317-.112.602-.28.854-.504v-1.232a3.156 3.156 0 00-.854-.322 4.036 4.036 0 00-.98-.112c-.504 0-.905.107-1.204.322-.299.215-.448.5-.448.854zM55.441 83l-3.08-7.126h1.54l2.226 5.334 2.226-5.334h1.498L56.771 83h-1.33zm11.18-.812c-.411.317-.84.555-1.289.714-.448.15-.938.224-1.47.224a3.852 3.852 0 01-1.47-.28 3.88 3.88 0 01-1.19-.784 3.632 3.632 0 01-.798-1.162 3.853 3.853 0 01-.28-1.47c0-.513.093-.994.28-1.442a3.68 3.68 0 01.756-1.162 3.44 3.44 0 011.134-.77 3.393 3.393 0 011.4-.294c.486 0 .938.098 1.358.294.43.187.793.448 1.092.784.308.327.55.719.728 1.176.177.457.266.947.266 1.47v.406H61.51a2.394 2.394 0 002.408 2.044c.345 0 .677-.056.994-.168a2.46 2.46 0 00.812-.462l.896.882zm-2.955-5.25c-.532 0-.998.177-1.4.532-.392.355-.64.812-.742 1.372h4.228a2.418 2.418 0 00-.742-1.358 1.887 1.887 0 00-1.344-.546zm6.206-4.046V83h-1.4v-9.8l1.4-.308z"/><path fill-rule="evenodd" clip-rule="evenodd" d="M28.737 18.814L24 21.586l.121 16.711.121 16.71 9.555 5.497L43.353 66l9.597-5.525 9.598-5.525.231-5.51.231-5.512 4.486-2.542 4.485-2.543.01-6.01.009-6.01-4.662-2.658c-2.564-1.462-4.927-2.658-5.251-2.658-.324 0-2.687 1.196-5.251 2.658l-4.662 2.658-.005 5.392-.005 5.391-3.67 2.121c-2.02 1.167-3.785 2.121-3.923 2.121-.139 0-.252-4.458-.252-9.908v-9.908l-1.27-.875c-2.064-1.424-8.81-5.201-9.209-5.157-.202.023-2.499 1.29-5.103 2.814zm9.185 1.14l3.715 2.146-2.005 1.238a121.11 121.11 0 01-3.887 2.286l-1.88 1.048-3.658-2.163c-2.011-1.19-3.719-2.224-3.795-2.297-.171-.167 6.923-4.35 7.428-4.381.203-.012 2.04.943 4.082 2.123zm30.564 6.685l1.322.793-3.62 2.123c-1.991 1.167-3.88 2.122-4.2 2.122-.504 0-2.428-1.055-6.542-3.587-1.091-.672-1.063-.702 2.762-2.91l3.864-2.23 2.546 1.447c1.4.797 3.14 1.805 3.868 2.242zm-38.861-.696l3.617 2.124v21.409l4.425 2.493c2.433 1.371 4.518 2.74 4.634 3.042.115.301.15 2.355.075 4.563l-.134 4.014-8.308-4.807-8.307-4.806-.122-15.078c-.067-8.293.019-15.079.19-15.079.172 0 1.94.956 3.93 2.125zm12.847 7.543v9.668l-3.67 2.12c-2.02 1.167-3.785 2.122-3.923 2.122-.139 0-.252-4.35-.252-9.667v-9.667l3.576-2.1c1.968-1.154 3.733-2.109 3.923-2.122.19-.012.346 4.33.346 9.646zm17.423-1.002l1.5.751v4.307c0 2.368-.19 4.306-.423 4.306-.232 0-1.945-.9-3.807-2.002l-3.385-2.001-.133-4.49-.132-4.49 2.44 1.434c1.342.789 3.115 1.772 3.94 2.185zm10.552 5c-.197.514-6.705 4.364-7.378 4.364-.16 0-.288-1.925-.286-4.276l.004-4.277 3.804-2.166 3.803-2.167.135 3.98c.074 2.188.037 4.232-.082 4.542zm-13.86 3.846l3.94 2.255L51.9 48.49l-8.627 4.905-3.838-2.186c-2.343-1.336-3.622-2.315-3.285-2.516 2.62-1.56 16.273-9.55 16.37-9.58.07-.022 1.9.975 4.067 2.216zm4.808 8.098v4.344l-8.192 4.731-8.538 4.93c-.191.108-.345-1.843-.343-4.337l.003-4.535 8.19-4.698c4.503-2.584 8.343-4.716 8.534-4.739.19-.022.346 1.915.346 4.304z"/></g></svg>