<svg width="95" height="95" fill="none" xmlns="http://www.w3.org/2000/svg"><g fill="#fff"><path d="M29.464 82.3l-3.654-7.28V83h-1.372v-9.8h1.96l3.08 6.258 3.066-6.258h1.96V83h-1.386v-7.994L29.464 82.3zm8.643 1.372l.28-.644-2.842-7.154h1.54l2.086 5.446 2.296-5.446h1.512l-3.444 7.98c-.327.756-.7 1.297-1.12 1.624-.42.336-.957.504-1.61.504-.15 0-.29-.01-.42-.028a1.534 1.534 0 01-.322-.056v-1.232a2.88 2.88 0 00.63.056c.317 0 .593-.089.826-.266.243-.168.439-.43.588-.784zm5.028-2.296l.896-1.036c.532.513 1.073.9 1.623 1.162.56.252 1.144.378 1.75.378.7 0 1.27-.154 1.708-.462.448-.308.672-.7.672-1.176 0-.43-.154-.76-.462-.994-.308-.243-.816-.425-1.526-.546l-1.638-.266c-.895-.15-1.568-.434-2.016-.854-.438-.43-.658-.994-.658-1.694 0-.85.332-1.53.994-2.044.663-.513 1.536-.77 2.618-.77.7 0 1.396.117 2.087.35.69.224 1.31.55 1.861.98l-.811 1.12a6.26 6.26 0 00-1.596-.896 4.441 4.441 0 00-1.61-.308c-.635 0-1.148.135-1.54.406-.393.27-.589.62-.589 1.05 0 .401.136.71.406.924.271.205.72.36 1.344.462l1.582.252c1.027.168 1.783.476 2.269.924.494.439.741 1.036.741 1.792 0 .448-.093.859-.28 1.232-.186.373-.452.69-.797.952a3.812 3.812 0 01-1.232.616 5.75 5.75 0 01-1.596.21 5.77 5.77 0 01-2.269-.462 6.03 6.03 0 01-1.931-1.302zM62.388 78.1a4.87 4.87 0 01-.434 2.044 5.139 5.139 0 01-1.134 1.624L61.828 83l-1.372.336-.672-.812c-.373.205-.77.364-1.19.476-.42.103-.858.154-1.316.154a5.14 5.14 0 01-2.002-.392 5.107 5.107 0 01-1.624-1.064 5.354 5.354 0 01-1.078-1.61 5.104 5.104 0 01-.392-1.988c0-.7.131-1.358.392-1.974a5.14 5.14 0 011.078-1.61 4.99 4.99 0 011.624-1.078 5.14 5.14 0 012.002-.392c.71 0 1.377.13 2.002.392a4.99 4.99 0 011.624 1.078c.458.448.817.985 1.078 1.61.271.616.406 1.274.406 1.974zm-3.402 1.442l.924 1.12c.308-.327.546-.71.714-1.148.178-.439.266-.91.266-1.414a3.74 3.74 0 00-.28-1.456 3.525 3.525 0 00-.77-1.176 3.306 3.306 0 00-1.148-.784 3.573 3.573 0 00-1.414-.28c-.504 0-.975.093-1.414.28a3.49 3.49 0 00-1.148.784 3.659 3.659 0 00-.756 1.176c-.186.448-.28.933-.28 1.456 0 .523.094 1.013.28 1.47.187.448.44.835.756 1.162.327.327.71.588 1.148.784.44.187.91.28 1.414.28.29 0 .57-.028.84-.084.28-.065.537-.159.77-.28l-1.274-1.554 1.372-.336zM63.95 83v-9.8h1.47v8.498h5.642V83H63.95z"/><path fill-rule="evenodd" clip-rule="evenodd" d="M53.297 16.705c-.29.74.296 2.184 1.387 3.418 1.058 1.196 1.625 4.602 3.275 6.443-.481 1.056-.933 2.074-.93 3.221.008 3.029.63 4.227 1.357 5.011 1.253 1.355 2.14 1.211 2.47-.4l.282-1.373 1.36 1.832c1.653 2.228 6.067 5.514 1.18.269-.598-.86-1.36-2.207-1.692-2.991-.817-1.925-1.296-1.797-1.934.517-.501 1.816-.58 1.886-1.197 1.062-.754-1.007-.864-3.93-.229-6.092.32-1.09.267-1.602-.21-1.988-.352-.286-.977-1.507-1.387-2.714-.411-1.206-1.271-2.888-1.912-3.735-.64-.848-1.165-1.708-1.165-1.912 0-.666 1.617-.387 3.194.551.849.505 2.015.92 2.592.923 1.552.006 5.611 2.434 7.406 4.43.863.96 2.473 3.644 3.576 5.965 1.878 3.95 2.137 4.27 4.05 4.992 1.125.425 2.681 1.276 3.459 1.892l1.414 1.12-1.493.002c-1.949.003-2.985.412-2.985 1.178 0 .6 2.797 2.966 3.507 2.966.195 0 1.023.453 1.841 1.007L82 43.306l-.943-1.074c-.518-.591-1.73-1.638-2.694-2.327-1.883-1.346-1.867-1.83.063-1.842 2.358-.013 2.58-.66.76-2.22-.93-.797-2.554-1.878-3.609-2.404-1.657-.825-2.168-1.483-3.76-4.847-2.697-5.7-7.981-10.765-11.24-10.773-.662-.001-1.84-.414-2.618-.917-1.718-1.11-4.26-1.218-4.662-.197zm6.126 4.53c.158.4.494.729.747.729.62 0 .232-1.046-.473-1.275-.345-.113-.45.098-.274.546zM13.18 42.787c-.284.804-1.178 10.744-1.18 13.116-.001 1.76.112 1.955 1.133 1.955 1.096 0 1.144-.144 1.419-4.256.156-2.342.339-4.982.407-5.868.102-1.334.455-.624 2.061 4.142 1.731 5.138 2.061 5.767 3.09 5.89 1.087.13 1.257-.188 2.994-5.598 1.012-3.155 2.004-5.639 2.203-5.518.199.12.362 1.418.362 2.885 0 1.466.136 3.94.302 5.495.294 2.739.346 2.828 1.656 2.828 1.288 0 1.342-.082 1.13-1.725-.123-.95-.347-3.693-.497-6.098-.15-2.404-.398-5.148-.55-6.097-.254-1.59-.398-1.726-1.827-1.726h-1.55l-1.748 5.177c-.961 2.848-1.89 5.332-2.065 5.521-.174.19-1.146-2.14-2.158-5.177l-1.841-5.52h-1.57c-.862 0-1.66.258-1.771.574zm30.737.351c-2.668 2.05-2.04 5.25 1.408 7.172 1.245.693 2.634 1.57 3.088 1.945 1.217 1.008 1.03 2.69-.4 3.605-1.033.66-1.533.703-3.182.27-2.312-.607-3.46.006-1.992 1.063 2.276 1.64 7.066 1.172 8.504-.831.933-1.3.932-4.217-.001-5.128-.4-.39-1.892-1.388-3.319-2.219-4.23-2.464-4.006-5.26.386-4.848 2.484.233 3.362-.355 1.99-1.335-1.346-.96-5.06-.785-6.482.306zm12.581-.053c-1.89 1.125-3.017 3.903-3.017 7.434 0 5.125 1.844 7.526 5.869 7.639 1.453.04 3.27.468 4.411 1.036l1.942.967.513-.937c.45-.82.335-.997-.925-1.426-.792-.27-1.44-.582-1.44-.693 0-.113.478-.834 1.061-1.605.91-1.202 1.06-1.972 1.06-5.434 0-4.51-.612-6.164-2.67-7.203-1.818-.918-5.066-.812-6.804.222zm12.067 6.95v7.823h3.772c3.456 0 3.77-.076 3.77-.92 0-.797-.314-.92-2.356-.92h-2.357V42.212h-2.829v7.823zm-6.545-5.112c.942.745 1.127 1.377 1.283 4.384.276 5.343-1.231 7.676-4.45 6.887-1.747-.427-2.544-2.403-2.544-6.304 0-2.755.188-3.646.977-4.625 1.177-1.46 3.14-1.602 4.734-.342zm-31.637 1.962c0 .293.742 2.774 1.65 5.514.907 2.74 1.65 5.375 1.65 5.855 0 1.064-.767 1.729-2.478 2.148-1.89.464-1.664 1.598.32 1.598 3.205 0 5.77-3.494 7.79-10.613 1.27-4.47 1.248-5.033-.19-5.033-.97 0-1.206.28-1.457 1.725-.165.95-.67 3.072-1.124 4.717l-.825 2.992-1.503-4.717c-1.375-4.314-1.603-4.717-2.668-4.717-.641 0-1.165.239-1.165.531z"/></g></svg>