<svg width="95" height="95" fill="none" xmlns="http://www.w3.org/2000/svg"><g fill="#fff"><path d="M21.104 82.3l-3.654-7.28V83h-1.372v-9.8h1.96l3.08 6.258 3.066-6.258h1.96V83h-1.386v-7.994L21.104 82.3zm6.543-2.87a3.593 3.593 0 011.078-2.618 3.608 3.608 0 011.176-.784 3.657 3.657 0 011.456-.294c.513 0 .994.098 1.442.294.457.187.849.448 1.176.784.336.327.597.719.784 1.176.196.448.294.929.294 1.442a3.69 3.69 0 01-.294 1.47c-.187.448-.448.84-.784 1.176a3.708 3.708 0 01-1.176.784 3.71 3.71 0 01-1.442.28c-.514 0-1-.093-1.456-.28a3.928 3.928 0 01-1.176-.784 3.8 3.8 0 01-.798-1.176 3.851 3.851 0 01-.28-1.47zm3.71 2.478c.644 0 1.19-.238 1.638-.714.457-.485.686-1.073.686-1.764 0-.69-.23-1.274-.686-1.75a2.164 2.164 0 00-1.638-.714c-.644 0-1.195.238-1.652.714-.458.476-.686 1.06-.686 1.75s.224 1.279.672 1.764a2.224 2.224 0 001.666.714zM36.377 83v-7.126h1.4v.714c.28-.28.597-.49.952-.63a3.09 3.09 0 011.19-.224c.812 0 1.48.261 2.002.784.522.513.784 1.18.784 2.002V83h-1.4v-4.242c0-.56-.164-.999-.49-1.316-.318-.327-.742-.49-1.274-.49-.374 0-.714.08-1.022.238a2.005 2.005 0 00-.742.686V83h-1.4zm11.205.056c-.495 0-.961-.093-1.4-.28a3.798 3.798 0 01-1.148-.784 3.68 3.68 0 01-.756-1.162 3.677 3.677 0 01-.28-1.428c0-.504.094-.98.28-1.428a3.68 3.68 0 01.756-1.162 3.6 3.6 0 011.148-.77 3.524 3.524 0 011.428-.294c.383 0 .752.06 1.106.182.364.121.7.299 1.008.532v-.588h1.386v7.224c0 .924-.285 1.633-.854 2.128-.56.504-1.362.756-2.408.756a6.5 6.5 0 01-1.526-.182 5.367 5.367 0 01-1.344-.518l.546-1.092c.401.205.789.36 1.162.462.373.103.747.154 1.12.154.616 0 1.088-.145 1.414-.434.327-.29.49-.714.49-1.274V82.3a3.37 3.37 0 01-2.128.756zm-2.212-3.654c0 .681.229 1.26.686 1.736.458.467 1.022.7 1.694.7.401 0 .77-.07 1.106-.21.336-.15.62-.355.854-.616v-3.22a2.183 2.183 0 00-.854-.602 2.693 2.693 0 00-1.106-.224c-.672 0-1.236.238-1.694.714-.457.467-.686 1.04-.686 1.722zm7.064.028a3.593 3.593 0 011.078-2.618 3.608 3.608 0 011.176-.784 3.657 3.657 0 011.456-.294c.513 0 .994.098 1.442.294.457.187.849.448 1.176.784.336.327.597.719.784 1.176.196.448.294.929.294 1.442a3.69 3.69 0 01-.294 1.47c-.187.448-.448.84-.784 1.176a3.708 3.708 0 01-1.176.784 3.71 3.71 0 01-1.442.28c-.514 0-.999-.093-1.456-.28a3.928 3.928 0 01-1.176-.784 3.8 3.8 0 01-.798-1.176 3.851 3.851 0 01-.28-1.47zm3.71 2.478c.644 0 1.19-.238 1.638-.714.457-.485.686-1.073.686-1.764 0-.69-.229-1.274-.686-1.75a2.164 2.164 0 00-1.638-.714c-.644 0-1.195.238-1.652.714-.458.476-.686 1.06-.686 1.75s.224 1.279.672 1.764a2.224 2.224 0 001.666.714zM61.332 83v-9.8h3.458c.737 0 1.419.126 2.044.378.635.243 1.18.583 1.638 1.022.467.43.83.947 1.092 1.554.261.607.392 1.26.392 1.96a4.802 4.802 0 01-1.47 3.5 5.11 5.11 0 01-1.638 1.022A5.714 5.714 0 0164.79 83h-3.458zm3.486-8.484h-2.016v7.168h2.016c.504 0 .98-.089 1.428-.266a3.513 3.513 0 001.918-1.89c.187-.439.28-.91.28-1.414 0-.504-.093-.975-.28-1.414a3.403 3.403 0 00-.77-1.148 3.239 3.239 0 00-1.148-.756 3.675 3.675 0 00-1.428-.28zm6.7-1.316h4.241c.952 0 1.718.238 2.296.714.588.467.882 1.092.882 1.876 0 .467-.12.887-.364 1.26a2.47 2.47 0 01-.994.854c.532.205.952.509 1.26.91.318.401.476.868.476 1.4 0 .84-.308 1.517-.924 2.03-.616.504-1.432.756-2.45.756h-4.424v-9.8zm4.157 1.246h-2.688v2.912h2.688c.551 0 .99-.13 1.316-.392.327-.261.49-.616.49-1.064 0-.448-.163-.803-.49-1.064-.326-.261-.765-.392-1.316-.392zm.154 7.308c.607 0 1.092-.145 1.456-.434.364-.299.546-.69.546-1.176 0-.476-.182-.863-.546-1.162-.364-.299-.849-.448-1.456-.448h-2.842v3.22h2.842z"/><path fill-rule="evenodd" clip-rule="evenodd" d="M43.181 15.274c-4.166 4.63-6.012 8.01-7.25 13.274-1.7 7.22-1.049 14.615 1.77 20.09 1.598 3.104 6.669 8.743 7.302 8.12.228-.225.567-1.527.752-2.894.435-3.21 1.303-3.162 2.113.116.353 1.428.936 2.694 1.296 2.812 1.032.34 5.408-4.95 7.347-8.878 4.824-9.776 2.494-22.506-5.758-31.455-1.637-1.775-3.222-3.644-3.521-4.154-.446-.759-1.181-.22-4.051 2.97zm.904 36.559c-.757.745-3.496-2.977-4.932-6.703C36.112 37.245 37.848 25.457 43 19l1.303-1.633.159 16.969c.089 9.511-.078 17.2-.378 17.497zm2.124 3.64c-.502 3.051.207 8.527 1.104 8.527 1.216 0 1.36-6.358.196-8.653l-.965-1.904-.335 2.03z"/></g></svg>