<svg width="95" height="95" fill="none" xmlns="http://www.w3.org/2000/svg"><g fill="#fff"><path d="M20.788 73.2h1.442l5.46 7.266V73.2h1.386V83h-1.288l-5.614-7.504V83h-1.386v-9.8zm9.805 6.23a3.593 3.593 0 011.078-2.618 3.608 3.608 0 011.176-.784 3.657 3.657 0 011.456-.294c.513 0 .994.098 1.442.294.457.187.85.448 1.176.784.336.327.597.719.784 1.176.196.448.294.929.294 1.442a3.69 3.69 0 01-.294 1.47c-.187.448-.448.84-.784 1.176a3.708 3.708 0 01-1.176.784 3.71 3.71 0 01-1.442.28c-.514 0-.999-.093-1.456-.28a3.928 3.928 0 01-1.176-.784 3.8 3.8 0 01-.798-1.176 3.851 3.851 0 01-.28-1.47zm3.71 2.478c.644 0 1.19-.238 1.638-.714.457-.485.686-1.073.686-1.764 0-.69-.229-1.274-.686-1.75a2.164 2.164 0 00-1.638-.714c-.644 0-1.195.238-1.652.714-.458.476-.686 1.06-.686 1.75s.224 1.279.672 1.764a2.224 2.224 0 001.666.714zM44.81 83v-.672a3.404 3.404 0 01-1.008.588c-.373.13-.765.196-1.176.196-.504 0-.975-.093-1.414-.28a3.797 3.797 0 01-1.148-.784 3.68 3.68 0 01-.756-1.162 3.815 3.815 0 01-.28-1.456c0-.513.094-.994.28-1.442a3.68 3.68 0 01.756-1.162 3.56 3.56 0 011.162-.77 3.524 3.524 0 011.428-.294c.392 0 .77.06 1.134.182.364.121.7.294 1.008.518V73.2l1.4-.308V83H44.81zm-4.41-3.584c0 .7.234 1.288.7 1.764a2.318 2.318 0 001.722.714c.402 0 .77-.075 1.106-.224.346-.15.635-.36.868-.63v-3.234a2.447 2.447 0 00-.868-.616 2.757 2.757 0 00-1.106-.224c-.68 0-1.255.233-1.722.7-.466.467-.7 1.05-.7 1.75zm13.628 2.772c-.41.317-.84.555-1.288.714-.448.15-.938.224-1.47.224a3.852 3.852 0 01-1.47-.28 3.88 3.88 0 01-1.19-.784 3.632 3.632 0 01-.798-1.162 3.853 3.853 0 01-.28-1.47c0-.513.094-.994.28-1.442a3.68 3.68 0 01.756-1.162 3.44 3.44 0 011.134-.77 3.393 3.393 0 011.4-.294c.486 0 .938.098 1.358.294.43.187.794.448 1.092.784.308.327.551.719.728 1.176.178.457.266.947.266 1.47v.406h-5.628a2.4 2.4 0 00.812 1.47c.448.383.98.574 1.596.574.346 0 .677-.056.994-.168a2.46 2.46 0 00.812-.462l.896.882zm-2.954-5.25c-.532 0-.998.177-1.4.532-.392.355-.639.812-.742 1.372h4.228a2.418 2.418 0 00-.742-1.358 1.887 1.887 0 00-1.344-.546zm14.731 2.324c0 1.176-.354 2.119-1.064 2.828-.7.71-1.633 1.064-2.8 1.064-.896 0-1.67-.233-2.324-.7-.643-.467-1.11-1.12-1.4-1.96l1.345-.532c.233.616.55 1.078.952 1.386.4.308.881.462 1.441.462.71 0 1.284-.233 1.723-.7.438-.476.657-1.101.657-1.876V73.2h1.47v6.062zm.927 2.114l.896-1.036c.532.513 1.073.9 1.624 1.162a4.22 4.22 0 001.75.378c.7 0 1.27-.154 1.708-.462.448-.308.672-.7.672-1.176 0-.43-.154-.76-.462-.994-.308-.243-.817-.425-1.526-.546l-1.638-.266c-.896-.15-1.568-.434-2.016-.854-.438-.43-.658-.994-.658-1.694 0-.85.332-1.53.994-2.044.663-.513 1.536-.77 2.618-.77.7 0 1.395.117 2.086.35a6.02 6.02 0 011.862.98l-.812 1.12a6.26 6.26 0 00-1.596-.896 4.44 4.44 0 00-1.61-.308c-.634 0-1.148.135-1.54.406-.392.27-.588.62-.588 1.05 0 .401.136.71.406.924.27.205.719.36 1.344.462l1.582.252c1.027.168 1.783.476 2.268.924.495.439.742 1.036.742 1.792 0 .448-.093.859-.28 1.232a2.71 2.71 0 01-.798.952 3.81 3.81 0 01-1.232.616 5.74 5.74 0 01-1.596.21c-.784 0-1.54-.154-2.268-.462a6.03 6.03 0 01-1.932-1.302z"/><path fill-rule="evenodd" clip-rule="evenodd" d="M35.765 14.914l-11.543 6.861-.11 14.197L24 50.17l12.026 6.916L48.053 64l4.475-2.6c2.461-1.43 7.8-4.55 11.862-6.935l7.388-4.336.11-14.209L72 21.711 60.033 14.83C53.45 11.045 47.895 7.972 47.687 8c-.21.029-5.574 3.14-11.922 6.914zm18.11 4.609a536.358 536.358 0 007.17 4.234c4.284 2.456 4.039 1.723 4.03 12.1-.003 5.05-.159 9.42-.345 9.712-.394.616-15.656 9.965-16.269 9.965-.667 0-7.386-3.186-7.386-3.503 0-.26.873-2.115 1.162-2.468.062-.076 1.466.535 3.12 1.359l3.006 1.498 6.86-4.233 6.859-4.234.126-7.951.126-7.952-6.668-3.986c-3.668-2.192-6.951-3.986-7.296-3.986-.344 0-3.633 1.759-7.308 3.909l-6.682 3.909v16.638l1.569 1.068c1.713 1.167 3.701 1.388 4.572.509.391-.396.553-3.131.553-9.331v-8.77h2.771v19.044l-1.374 1.168c-2.821 2.399-5.766 2.173-8.984-.689l-2.108-1.875.007-9.408c.004-5.174.16-9.634.346-9.912.635-.946 15.571-9.506 16.603-9.516.566-.005 3.059 1.21 5.54 2.701zm1.919 9.47c1.333.47 2.825 2.402 2.825 3.658 0 .995-2.406.49-3.332-.699-.807-1.037-1.223-1.171-3.25-1.05-1.606.097-2.483.392-2.833.956-.867 1.396.266 2.361 4.234 3.61 5.45 1.713 6.824 3.428 5.435 6.786-1.772 4.285-10.312 4.582-12.187.422-.83-1.838-.661-2.537.61-2.537.79 0 1.353.412 1.828 1.34 1.471 2.876 7.187 2.39 7.187-.61 0-1.475-.604-1.87-4.595-3.002-3.906-1.107-5.02-1.994-5.388-4.287-.287-1.783.989-3.918 2.774-4.647 1.406-.574 4.983-.542 6.692.06z"/></g></svg>