<svg width="95" height="95" fill="none" xmlns="http://www.w3.org/2000/svg"><g fill="#fff"><path d="M27.634 78.1c0 .7-.135 1.363-.405 1.988a5.03 5.03 0 01-1.078 1.61 5.107 5.107 0 01-1.625 1.064 5.14 5.14 0 01-2.002.392 5.14 5.14 0 01-2.002-.392 5.107 5.107 0 01-1.623-1.064 5.354 5.354 0 01-1.079-1.61 5.104 5.104 0 01-.392-1.988c0-.7.131-1.358.392-1.974a5.14 5.14 0 011.078-1.61 4.99 4.99 0 011.625-1.078 5.14 5.14 0 012.002-.392c.709 0 1.376.13 2.002.392a4.99 4.99 0 011.623 1.078c.458.448.817.985 1.079 1.61.27.616.405 1.274.405 1.974zm-1.497 0c0-.523-.094-1.008-.28-1.456a3.525 3.525 0 00-.77-1.176 3.306 3.306 0 00-1.148-.784 3.573 3.573 0 00-1.415-.28c-.504 0-.975.093-1.414.28a3.49 3.49 0 00-1.148.784 3.659 3.659 0 00-.756 1.176c-.186.448-.28.933-.28 1.456 0 .523.094 1.013.28 1.47.187.448.44.835.756 1.162.327.327.71.588 1.148.784.44.187.91.28 1.415.28.504 0 .975-.093 1.414-.28a3.58 3.58 0 001.148-.784 3.56 3.56 0 00.77-1.162c.186-.457.28-.947.28-1.47zm2.891 7.798V75.874h1.386v.686c.29-.261.62-.457.994-.588.373-.14.77-.21 1.19-.21.504 0 .976.098 1.414.294.439.187.817.443 1.134.77.327.327.584.714.77 1.162.187.448.28.929.28 1.442 0 .513-.093.999-.28 1.456a3.558 3.558 0 01-.77 1.162 3.58 3.58 0 01-1.148.784 3.67 3.67 0 01-1.428.28c-.392 0-.774-.06-1.148-.182a3.476 3.476 0 01-.994-.518v3.486h-1.4zm3.388-8.918a2.8 2.8 0 00-1.12.224c-.345.15-.634.36-.868.63v3.22c.224.261.509.467.854.616.355.15.733.224 1.134.224.681 0 1.25-.233 1.708-.7.467-.467.7-1.05.7-1.75s-.233-1.283-.7-1.75a2.3 2.3 0 00-1.708-.714zm11.317 5.208c-.41.317-.84.555-1.288.714-.448.15-.938.224-1.47.224a3.851 3.851 0 01-1.47-.28 3.88 3.88 0 01-1.19-.784 3.632 3.632 0 01-.798-1.162 3.851 3.851 0 01-.28-1.47c0-.513.094-.994.28-1.442a3.68 3.68 0 01.756-1.162 3.437 3.437 0 011.134-.77 3.393 3.393 0 011.4-.294c.486 0 .938.098 1.358.294.43.187.794.448 1.092.784.308.327.551.719.728 1.176.178.457.266.947.266 1.47v.406h-5.628a2.4 2.4 0 00.812 1.47c.448.383.98.574 1.596.574.346 0 .677-.056.994-.168.318-.112.588-.266.812-.462l.896.882zm-2.954-5.25c-.532 0-.998.177-1.4.532-.392.355-.639.812-.742 1.372h4.228a2.419 2.419 0 00-.742-1.358 1.888 1.888 0 00-1.344-.546zM45.585 83v-7.126h1.4v.714c.28-.28.597-.49.952-.63a3.09 3.09 0 011.19-.224c.812 0 1.48.261 2.002.784.523.513.784 1.18.784 2.002V83h-1.4v-4.242c0-.56-.163-.999-.49-1.316-.318-.327-.742-.49-1.274-.49-.373 0-.714.08-1.022.238a2.005 2.005 0 00-.742.686V83h-1.4zm11.345-1.106c.355 0 .69-.07 1.008-.21.317-.15.62-.369.91-.658l.84.91a4.22 4.22 0 01-1.288.882 3.878 3.878 0 01-1.526.308 3.71 3.71 0 01-1.442-.28 3.75 3.75 0 01-1.162-.784 3.751 3.751 0 01-.784-1.162 3.853 3.853 0 01-.28-1.47c0-.513.093-.994.28-1.442a3.71 3.71 0 01.784-1.176 3.454 3.454 0 011.162-.784 3.558 3.558 0 011.442-.294c.532 0 1.05.107 1.554.322a3.94 3.94 0 011.316.868l-.882.952a2.797 2.797 0 00-.91-.658 2.43 2.43 0 00-1.05-.238c-.644 0-1.19.238-1.638.714-.448.476-.672 1.055-.672 1.736 0 .7.224 1.288.672 1.764.457.467 1.013.7 1.666.7zm6.153 1.232c-.775 0-1.405-.2-1.89-.602-.485-.401-.728-.924-.728-1.568 0-.672.257-1.2.77-1.582.513-.392 1.218-.588 2.114-.588.345 0 .681.037 1.008.112.327.065.64.159.938.28v-.756c0-.504-.15-.882-.448-1.134-.299-.252-.728-.378-1.288-.378a3.66 3.66 0 00-1.022.154 7.147 7.147 0 00-1.19.448l-.518-1.05a7.65 7.65 0 011.512-.546 5.71 5.71 0 011.414-.182c.924 0 1.638.224 2.142.672.513.439.77 1.064.77 1.876V83h-1.372v-.616a3.328 3.328 0 01-1.022.56c-.364.121-.76.182-1.19.182zm-1.274-2.198a1 1 0 00.434.84c.299.215.686.322 1.162.322.373 0 .719-.056 1.036-.168.317-.112.602-.28.854-.504v-1.232a3.154 3.154 0 00-.854-.322 4.034 4.034 0 00-.98-.112c-.504 0-.905.107-1.204.322-.299.215-.448.5-.448.854zM68.28 83v-7.126h1.4v.91c.215-.345.49-.607.826-.784.336-.187.714-.28 1.134-.28.15 0 .28.01.392.028.112.019.22.047.322.084v1.26a2.888 2.888 0 00-.406-.112 2.137 2.137 0 00-.42-.042c-.41 0-.78.112-1.106.336-.317.215-.565.537-.742.966V83h-1.4zm6.174-1.764V77.05h-1.512v-1.176h1.512v-1.82l1.386-.336v2.156h2.1v1.176h-2.1v3.864c0 .364.08.62.238.77.168.15.439.224.812.224.196 0 .369-.01.518-.028a2.96 2.96 0 00.504-.14v1.176a3.605 3.605 0 01-.658.154 4.447 4.447 0 01-.672.056c-.69 0-1.218-.159-1.582-.476-.364-.327-.546-.798-.546-1.414z"/><path fill-rule="evenodd" clip-rule="evenodd" d="M17.942 15.638c1.767 3.071 6.249 7.038 10 8.85 5.797 2.799 8.14 3.202 22.527 3.875 13.554.635 16.38 1.12 17.083 2.934.429 1.104-.801 3.427-3.571 6.745-2.68 3.21-4.523 5.728-4.523 6.18 0 .516 9.233-7.405 13.97-11.987 4.888-4.726 5.568-6.254 3.402-7.65-2.293-1.48-5.778-1.802-23.688-2.191-19.883-.433-22.388-.733-28.08-3.367-1.726-.8-4.247-2.257-5.6-3.24L17 14l.942 1.638zm11.542 32.191c-2.596 1.566-3.287 4.01-1.89 6.682 2.351 4.497 9.512 2.477 9.512-2.683 0-1.7-1.098-3.286-2.92-4.218-1.858-.949-2.84-.903-4.702.22zm20.365.006c-2.983 1.837-3.364 5.065-.886 7.515 3.729 3.688 9.55.527 8.263-4.487-.824-3.213-4.575-4.753-7.377-3.028z"/></g></svg>