<svg width="95" height="95" fill="none" xmlns="http://www.w3.org/2000/svg"><g fill="#fff"><path fill-rule="evenodd" clip-rule="evenodd" d="M48.028 16.537c1.561-1.911 4.24-3.378 6.533-3.537.384 2.612-.677 5.17-2.08 6.98-1.5 1.942-4.088 3.445-6.593 3.367-.456-2.502.715-5.077 2.14-6.81zm7.377 6.527c2.92 0 6.014 1.602 8.215 4.362-7.216 3.98-6.047 14.349 1.245 17.125-1.003 2.236-1.484 3.233-2.777 5.214-1.803 2.762-4.343 6.205-7.495 6.23-1.296.013-2.146-.38-3.063-.802-1.062-.49-2.214-1.022-4.252-1.01-2.028.01-3.198.535-4.275 1.018-.94.421-1.81.811-3.116.799-3.15-.027-5.558-3.134-7.36-5.897-5.04-7.72-5.572-16.786-2.463-21.607 2.212-3.424 5.7-5.426 8.977-5.426 1.746 0 3.153.504 4.494.985 1.22.438 2.386.856 3.702.856 1.218 0 2.22-.382 3.312-.798 1.31-.5 2.752-1.049 4.856-1.049z"/><path d="M18.878 78.1c0 .7-.136 1.363-.406 1.988a5.03 5.03 0 01-1.078 1.61 5.108 5.108 0 01-1.624 1.064 5.14 5.14 0 01-2.002.392 5.14 5.14 0 01-2.002-.392 5.106 5.106 0 01-1.624-1.064 5.353 5.353 0 01-1.078-1.61 5.103 5.103 0 01-.392-1.988c0-.7.13-1.358.392-1.974a5.13 5.13 0 011.078-1.61 4.99 4.99 0 011.624-1.078 5.14 5.14 0 012.002-.392c.709 0 1.376.13 2.002.392.625.261 1.166.62 1.624 1.078.457.448.816.985 1.078 1.61.27.616.406 1.274.406 1.974zm-1.498 0c0-.523-.094-1.008-.28-1.456a3.527 3.527 0 00-.77-1.176 3.307 3.307 0 00-1.148-.784 3.573 3.573 0 00-1.414-.28c-.504 0-.976.093-1.414.28a3.489 3.489 0 00-1.148.784c-.318.327-.57.719-.756 1.176a3.74 3.74 0 00-.28 1.456c0 .523.093 1.013.28 1.47.186.448.438.835.756 1.162a3.78 3.78 0 001.148.784c.438.187.91.28 1.414.28.504 0 .975-.093 1.414-.28a3.58 3.58 0 001.148-.784c.326-.327.583-.714.77-1.162.186-.457.28-.947.28-1.47zm10.06 1.33c0 .513-.094.999-.28 1.456a3.56 3.56 0 01-.77 1.162 3.58 3.58 0 01-1.149.784 3.67 3.67 0 01-1.428.28 3.59 3.59 0 01-1.148-.182 3.482 3.482 0 01-1.008-.532V83h-1.386v-9.8l1.4-.308v3.654a3.03 3.03 0 01.994-.574c.374-.14.766-.21 1.176-.21.504 0 .976.098 1.414.294.439.187.817.443 1.134.77.327.327.584.714.77 1.162.187.448.28.929.28 1.442zm-3.78-2.45c-.402 0-.775.075-1.12.224-.346.15-.635.36-.869.63v3.22c.224.261.509.467.854.616.355.15.733.224 1.134.224.682 0 1.251-.233 1.708-.7.467-.467.7-1.05.7-1.75s-.233-1.283-.7-1.75a2.301 2.301 0 00-1.708-.714zm5.815-2.254a.822.822 0 01-.602-.252.869.869 0 01-.252-.616c0-.233.084-.434.252-.602a.8.8 0 01.602-.266.8.8 0 01.602.266.8.8 0 01.266.602.845.845 0 01-.266.616.822.822 0 01-.602.252zm-1.33 11.228a3.276 3.276 0 01-.798-.098v-1.12a2.707 2.707 0 00.56.056c.308 0 .528-.07.658-.21.14-.13.21-.35.21-.658v-8.05h1.4v8.148c0 .616-.177 1.092-.532 1.428-.354.336-.854.504-1.498.504zm9.853-3.766c-.41.317-.84.555-1.288.714-.448.15-.938.224-1.47.224a3.852 3.852 0 01-1.47-.28 3.88 3.88 0 01-1.19-.784 3.632 3.632 0 01-.798-1.162 3.853 3.853 0 01-.28-1.47c0-.513.093-.994.28-1.442a3.68 3.68 0 01.756-1.162 3.44 3.44 0 011.134-.77 3.393 3.393 0 011.4-.294c.485 0 .938.098 1.358.294.43.187.793.448 1.092.784.308.327.55.719.728 1.176.177.457.266.947.266 1.47v.406h-5.628a2.394 2.394 0 002.408 2.044c.345 0 .677-.056.994-.168a2.46 2.46 0 00.812-.462l.896.882zm-2.954-5.25c-.532 0-.999.177-1.4.532-.392.355-.64.812-.742 1.372h4.228a2.418 2.418 0 00-.742-1.358 1.887 1.887 0 00-1.344-.546zm8.235 4.956c.354 0 .69-.07 1.008-.21.317-.15.62-.369.91-.658l.84.91a4.222 4.222 0 01-1.288.882 3.878 3.878 0 01-1.526.308 3.71 3.71 0 01-1.442-.28 3.748 3.748 0 01-1.162-.784 3.75 3.75 0 01-.784-1.162 3.851 3.851 0 01-.28-1.47c0-.513.093-.994.28-1.442.196-.457.457-.85.784-1.176a3.453 3.453 0 011.162-.784 3.558 3.558 0 011.442-.294c.532 0 1.05.107 1.554.322a3.95 3.95 0 011.316.868l-.882.952a2.798 2.798 0 00-.91-.658 2.43 2.43 0 00-1.05-.238c-.644 0-1.19.238-1.638.714-.448.476-.672 1.055-.672 1.736 0 .7.224 1.288.672 1.764.457.467 1.012.7 1.666.7zm4.96-.658V77.05h-1.513v-1.176h1.512v-1.82l1.386-.336v2.156h2.1v1.176h-2.1v3.864c0 .364.08.62.238.77.168.15.439.224.812.224.196 0 .369-.01.518-.028a2.96 2.96 0 00.504-.14v1.176a3.605 3.605 0 01-.658.154 4.447 4.447 0 01-.672.056c-.69 0-1.218-.159-1.582-.476-.364-.327-.546-.798-.546-1.414zm5.217-6.51a.822.822 0 01-.602-.252.869.869 0 01-.252-.616c0-.233.084-.434.252-.602a.8.8 0 01.602-.266.8.8 0 01.602.266.8.8 0 01.266.602.846.846 0 01-.266.616.822.822 0 01-.602.252zm.7 1.148V83h-1.4v-7.126h1.4zM58.1 83l-3.08-7.126h1.54l2.226 5.334 2.227-5.334h1.498L59.43 83H58.1zm11.18-.812c-.411.317-.84.555-1.289.714-.448.15-.938.224-1.47.224a3.851 3.851 0 01-1.47-.28 3.88 3.88 0 01-1.19-.784 3.632 3.632 0 01-.798-1.162 3.851 3.851 0 01-.28-1.47c0-.513.094-.994.28-1.442a3.68 3.68 0 01.756-1.162 3.437 3.437 0 011.134-.77 3.393 3.393 0 011.4-.294c.486 0 .938.098 1.358.294.43.187.794.448 1.092.784.308.327.551.719.728 1.176.178.457.266.947.266 1.47v.406H64.17a2.4 2.4 0 00.812 1.47c.448.383.98.574 1.596.574.346 0 .677-.056.994-.168.318-.112.588-.266.812-.462l.896.882zm-2.955-5.25c-.532 0-.998.177-1.4.532-.392.355-.639.812-.742 1.372h4.228a2.419 2.419 0 00-.742-1.358 1.888 1.888 0 00-1.344-.546zm4.678 1.498h5.04v1.204h-5.04v-1.204zm11.577 3.36c.56 0 1.097-.112 1.61-.336a3.65 3.65 0 001.302-.98l.966.98a5.16 5.16 0 01-1.764 1.246c-.69.299-1.41.448-2.156.448a5.28 5.28 0 01-2.03-.392 5.106 5.106 0 01-1.624-1.064 5.222 5.222 0 01-1.092-1.61A5.102 5.102 0 0177.4 78.1c0-.71.13-1.372.392-1.988a5.051 5.051 0 011.092-1.596 4.99 4.99 0 011.624-1.078 5.28 5.28 0 012.03-.392 5.4 5.4 0 012.198.462c.71.299 1.293.71 1.75 1.232l-.98 1.008a3.828 3.828 0 00-1.344-.994 3.944 3.944 0 00-1.624-.35 3.71 3.71 0 00-1.442.28 3.453 3.453 0 00-1.162.784c-.317.327-.57.719-.756 1.176-.186.448-.28.933-.28 1.456 0 .523.094 1.013.28 1.47a3.579 3.579 0 001.932 1.946c.457.187.948.28 1.47.28z"/></g></svg>