<svg width="95" height="95" fill="none" xmlns="http://www.w3.org/2000/svg"><g fill="#fff"><path d="M9.187 83v-9.8h4.536c.952 0 1.722.275 2.31.826.598.541.896 1.246.896 2.114 0 .859-.298 1.559-.896 2.1-.597.541-1.367.812-2.31.812h-3.066V83h-1.47zm4.382-8.512h-2.912v3.318h2.912c.57 0 1.022-.15 1.358-.448.346-.308.518-.714.518-1.218s-.172-.905-.518-1.204c-.336-.299-.788-.448-1.358-.448zm3.92 4.942a3.593 3.593 0 011.078-2.618 3.608 3.608 0 011.175-.784 3.657 3.657 0 011.456-.294c.514 0 .994.098 1.442.294.458.187.85.448 1.176.784.336.327.598.719.784 1.176.196.448.294.929.294 1.442a3.69 3.69 0 01-.294 1.47c-.186.448-.448.84-.784 1.176a3.708 3.708 0 01-1.176.784 3.71 3.71 0 01-1.442.28c-.513 0-.998-.093-1.456-.28a3.928 3.928 0 01-1.176-.784 3.8 3.8 0 01-.798-1.176 3.851 3.851 0 01-.28-1.47zm3.71 2.478c.643 0 1.19-.238 1.637-.714.458-.485.686-1.073.686-1.764 0-.69-.228-1.274-.686-1.75a2.164 2.164 0 00-1.638-.714c-.644 0-1.194.238-1.652.714-.457.476-.686 1.06-.686 1.75s.224 1.279.672 1.764a2.224 2.224 0 001.666.714zm4.348.168l.756-.924c.373.29.75.513 1.134.672.392.15.788.224 1.19.224.504 0 .914-.098 1.232-.294.317-.196.476-.453.476-.77a.731.731 0 00-.28-.602c-.187-.15-.476-.252-.868-.308l-1.288-.182c-.7-.103-1.232-.317-1.596-.644-.355-.336-.532-.78-.532-1.33 0-.644.256-1.162.77-1.554.513-.401 1.185-.602 2.016-.602.522 0 1.017.075 1.484.224.476.15.938.378 1.386.686l-.714.924a4.33 4.33 0 00-1.148-.56 3.478 3.478 0 00-1.106-.182c-.43 0-.775.089-1.036.266-.262.177-.392.41-.392.7 0 .261.088.462.266.602.186.13.49.229.91.294l1.288.182c.7.103 1.232.322 1.596.658.373.336.56.78.56 1.33 0 .317-.08.616-.238.896-.15.27-.36.504-.63.7a3.278 3.278 0 01-.938.476 3.98 3.98 0 01-1.176.168 5.544 5.544 0 01-1.736-.266 3.967 3.967 0 01-1.386-.784zm7.967-.84V77.05h-1.512v-1.176h1.512v-1.82l1.386-.336v2.156H37v1.176h-2.1v3.864c0 .364.079.62.238.77.168.15.438.224.812.224.196 0 .368-.01.518-.028a3.01 3.01 0 00.504-.14v1.176a3.605 3.605 0 01-.658.154 4.447 4.447 0 01-.672.056c-.691 0-1.218-.159-1.582-.476-.364-.327-.546-.798-.546-1.414zm7.629 1.82c-.495 0-.962-.093-1.4-.28a3.797 3.797 0 01-1.148-.784 3.68 3.68 0 01-.756-1.162 3.675 3.675 0 01-.28-1.428c0-.504.093-.98.28-1.428a3.68 3.68 0 01.756-1.162 3.587 3.587 0 011.148-.77 3.524 3.524 0 011.428-.294c.382 0 .751.06 1.106.182.364.121.7.299 1.008.532v-.588h1.386v7.224c0 .924-.285 1.633-.854 2.128-.56.504-1.363.756-2.408.756a6.5 6.5 0 01-1.526-.182 5.364 5.364 0 01-1.344-.518l.546-1.092c.401.205.788.36 1.162.462.373.103.746.154 1.12.154.616 0 1.087-.145 1.414-.434.326-.29.49-.714.49-1.274V82.3a3.371 3.371 0 01-2.128.756zm-2.212-3.654c0 .681.228 1.26.686 1.736.457.467 1.022.7 1.694.7.401 0 .77-.07 1.106-.21.336-.15.62-.355.854-.616v-3.22a2.184 2.184 0 00-.854-.602 2.693 2.693 0 00-1.106-.224c-.672 0-1.237.238-1.694.714-.458.467-.686 1.04-.686 1.722zM46.316 83v-7.126h1.4v.91c.215-.345.49-.607.826-.784.336-.187.714-.28 1.134-.28.15 0 .28.01.392.028.112.019.22.047.322.084v1.26a2.884 2.884 0 00-.406-.112 2.137 2.137 0 00-.42-.042c-.41 0-.78.112-1.106.336-.317.215-.564.537-.742.966V83h-1.4zm10.932-.812c-.41.317-.84.555-1.288.714-.448.15-.938.224-1.47.224a3.852 3.852 0 01-1.47-.28 3.88 3.88 0 01-1.19-.784 3.632 3.632 0 01-.798-1.162 3.853 3.853 0 01-.28-1.47c0-.513.093-.994.28-1.442a3.68 3.68 0 01.756-1.162 3.44 3.44 0 011.134-.77 3.393 3.393 0 011.4-.294c.485 0 .938.098 1.358.294.43.187.793.448 1.092.784.308.327.55.719.728 1.176.177.457.266.947.266 1.47v.406h-5.628a2.394 2.394 0 002.408 2.044c.345 0 .677-.056.994-.168a2.46 2.46 0 00.812-.462l.896.882zm-2.954-5.25c-.532 0-.999.177-1.4.532-.392.355-.64.812-.742 1.372h4.228a2.418 2.418 0 00-.742-1.358 1.887 1.887 0 00-1.344-.546zm4.091 4.438l.896-1.036c.532.513 1.074.9 1.624 1.162a4.22 4.22 0 001.75.378c.7 0 1.27-.154 1.708-.462.448-.308.672-.7.672-1.176 0-.43-.154-.76-.462-.994-.308-.243-.816-.425-1.526-.546l-1.638-.266c-.896-.15-1.568-.434-2.016-.854-.438-.43-.658-.994-.658-1.694 0-.85.332-1.53.994-2.044.663-.513 1.536-.77 2.618-.77.7 0 1.396.117 2.086.35.691.224 1.312.55 1.862.98l-.812 1.12a6.26 6.26 0 00-1.596-.896 4.44 4.44 0 00-1.61-.308c-.634 0-1.148.135-1.54.406-.392.27-.588.62-.588 1.05 0 .401.136.71.406.924.271.205.72.36 1.344.462l1.582.252c1.027.168 1.783.476 2.268.924.495.439.742 1.036.742 1.792 0 .448-.093.859-.28 1.232-.186.373-.452.69-.798.952a3.81 3.81 0 01-1.232.616 5.74 5.74 0 01-1.596.21c-.784 0-1.54-.154-2.268-.462a6.03 6.03 0 01-1.932-1.302zM77.64 78.1a4.87 4.87 0 01-.434 2.044 5.139 5.139 0 01-1.134 1.624L77.08 83l-1.372.336-.672-.812c-.373.205-.77.364-1.19.476-.42.103-.858.154-1.316.154a5.14 5.14 0 01-2.002-.392 5.106 5.106 0 01-1.624-1.064 5.353 5.353 0 01-1.078-1.61 5.102 5.102 0 01-.392-1.988 5 5 0 01.392-1.974 5.13 5.13 0 011.078-1.61 4.99 4.99 0 011.624-1.078 5.14 5.14 0 012.002-.392 5.124 5.124 0 013.626 1.47c.458.448.817.985 1.078 1.61.271.616.406 1.274.406 1.974zm-3.402 1.442l.924 1.12c.308-.327.546-.71.714-1.148.178-.439.266-.91.266-1.414a3.74 3.74 0 00-.28-1.456 3.527 3.527 0 00-.77-1.176 3.307 3.307 0 00-1.148-.784 3.573 3.573 0 00-1.414-.28c-.504 0-.975.093-1.414.28a3.489 3.489 0 00-1.148.784 3.659 3.659 0 00-.756 1.176c-.186.448-.28.933-.28 1.456 0 .523.094 1.013.28 1.47.187.448.439.835.756 1.162.327.327.71.588 1.148.784.439.187.91.28 1.414.28.29 0 .57-.028.84-.084.28-.065.537-.159.77-.28l-1.274-1.554 1.372-.336zM79.201 83v-9.8h1.47v8.498h5.642V83h-7.112z"/><path fill-rule="evenodd" clip-rule="evenodd" d="M29.211 15.79c-2.54.9-4.841 2.935-6.123 5.415-1.028 1.988-1.122 2.645-1.08 7.55.056 6.629 1.436 12.345 4.44 18.4 2.046 4.124 3.858 6.175 5.908 6.686 1.445.36 1.643.108 1.076-1.374-.786-2.056.231-3.425 3.479-4.68 1.543-.595 2.799-1.199 2.789-1.34-.01-.141-.653-.659-1.431-1.15-.777-.492-1.882-1.78-2.455-2.863-.972-1.84-1.041-2.481-1.041-9.703 0-8.71.515-10.943 3.393-14.691l1.52-1.98-1.67-.46c-2.323-.642-6.727-.547-8.805.19zm15.934.09c-2.673.968-5.599 4.048-6.749 7.104-1.18 3.137-1.17 3.497.085 3.13.556-.164 2.124-.41 3.484-.547 2.073-.21 2.665-.099 3.668.691 2.37 1.868 2.871 11.381.873 16.581-1.195 3.108-1.185 3.323.179 3.94 1.122.51 1.123.516 1.123 6.918 0 7.547.637 10.363 2.74 12.122 2.021 1.692 4.127 1.563 6.07-.368l1.529-1.52v-6.315c0-7.596.383-8.814 3.308-10.518 2.321-1.353 2.335-1.045-.281-6.27-4.177-8.341-3.777-13.691 1.141-15.251l1.247-.396-1.215-2.422c-1.442-2.877-3.78-5.316-6.238-6.51-2.403-1.165-8.22-1.361-10.964-.368zM61.66 17.1c1.067 1.154 2.533 3.346 3.259 4.87 1.284 2.698 1.318 2.956 1.319 9.775 0 3.852-.234 8.012-.52 9.244-.455 1.96-.419 2.394.293 3.474l.814 1.234 1.304-1.54c3.264-3.86 5.256-9.968 5.621-17.238l.25-4.973-1.953-2.105c-2.594-2.798-5.694-4.32-9.396-4.61L59.72 15l1.94 2.1zM39.268 28.724l-1.573.563-.126 5.35c-.116 4.942-.047 5.464.9 6.863 1.127 1.661 3.66 3.353 4.37 2.917.931-.572 2.272-6.148 2.272-9.446v-3.304h-1.278c-1.272 0-3.182-1.524-2.617-2.086.163-.162.995-.268 1.851-.235 1.197.044 1.497-.094 1.302-.598-.311-.808-2.882-.82-5.101-.024zm22.927-.196c-.577.362-.545.52.224 1.112.885.68.88.704-.351 1.72l-1.248 1.03.923 2.97c.508 1.635 1.12 3.093 1.36 3.24.275.17.438-1.74.438-5.12 0-2.963-.152-5.385-.337-5.382-.185.004-.64.198-1.01.43zm3.369 19.64c-2.835.681-5.125 2.808-4.57 4.245.453 1.174 5.23-.575 7.604-2.783.68-.632 1.236-1.313 1.236-1.513 0-.432-2.374-.403-4.27.052zm-25.57 1.149c-1.208.575-2.573 1.143-3.034 1.263-1.22.317-1.027 1.145.397 1.694 1.756.675 6.225.654 7.06-.035.381-.315.694-1.252.694-2.082 0-1.19-.182-1.51-.862-1.51-.474 0-1.132-.084-1.46-.188-.33-.103-1.587.283-2.795.858z"/></g></svg>