<svg width="95" height="95" fill="none" xmlns="http://www.w3.org/2000/svg"><g fill="#fff"><path d="M34.166 83v-9.8h4.536c.952 0 1.722.275 2.31.826.597.541.896 1.246.896 2.114 0 .859-.299 1.559-.896 2.1-.598.541-1.367.812-2.31.812h-3.066V83h-1.47zm4.382-8.512h-2.912v3.318h2.912c.57 0 1.022-.15 1.358-.448.345-.308.518-.714.518-1.218s-.173-.905-.518-1.204c-.336-.299-.789-.448-1.358-.448zM43.422 83v-9.8h1.47v4.2H50.1v-4.2h1.47V83H50.1v-4.27h-5.208V83h-1.47zm10.144 0v-9.8h4.536c.952 0 1.722.275 2.31.826.598.541.896 1.246.896 2.114 0 .859-.298 1.559-.896 2.1-.597.541-1.367.812-2.31.812h-3.066V83h-1.47zm4.382-8.512h-2.912v3.318h2.912c.57 0 1.022-.15 1.358-.448.346-.308.518-.714.518-1.218s-.172-.905-.518-1.204c-.336-.299-.788-.448-1.358-.448z"/><path fill-rule="evenodd" clip-rule="evenodd" d="M39.78 18.452c-5.14.598-11.237 2.352-15.515 4.463-14.858 7.332-15.043 19.557-.41 27 16.225 8.25 42.395 6.19 53.48-4.212 14.898-13.98-8.111-30.675-37.556-27.25zm9.423 5.229c-.003.059-.288 1.176-.633 2.482-.93 3.517-.965 3.454 1.915 3.454 3.914 0 4.857 1.337 3.802 5.396-1.64 6.32-1.612 6.26-2.963 6.26-.696 0-1.265-.15-1.265-.332 0-.183.383-1.735.851-3.448.469-1.714.852-3.614.852-4.222 0-1.074-.073-1.103-2.43-.977l-2.43.13-1.119 4.316c-1.102 4.252-1.14 4.32-2.464 4.453-.74.074-1.346.05-1.346-.053 0-.24 4.214-16.306 4.466-17.027.15-.43 2.783-.84 2.764-.432zm-7.451 6.791c.814.776 1.072 1.456 1.072 2.826 0 3.616-2.994 6.303-7.443 6.68l-2.549.216-.71 2.675c-.911 3.436-1.018 3.585-2.545 3.585-1.02 0-1.235-.154-1.058-.755.121-.416 1.115-4.156 2.207-8.311 1.092-4.155 2.084-7.723 2.203-7.929.12-.206 1.913-.292 3.984-.191 3.234.156 3.918.327 4.839 1.204zm22.93-.692c2.874 1.218 2.962 5.193.174 7.92-1.74 1.703-3.217 2.278-5.854 2.278-2.278 0-2.196-.111-3.403 4.641-.416 1.64-.6 1.835-1.726 1.835-.833 0-1.26-.218-1.26-.643 0-.518 3.181-12.879 4.085-15.87.19-.632.75-.756 3.405-.756 1.747 0 3.808.268 4.58.595zM35.017 32.1c-.303.497-1.538 5.45-1.395 5.595.476.483 4.42-.598 5.248-1.438 1.059-1.073 1.298-3.118.464-3.963-.556-.565-3.998-.72-4.317-.195zm23.371 2.009c-1.044 3.644-.98 3.838 1.14 3.491 2.269-.37 3.645-1.241 4.169-2.637.546-1.456.518-1.717-.262-2.51-.404-.408-1.405-.677-2.523-.677h-1.855l-.669 2.333z"/></g></svg>