<svg width="95" height="95" fill="none" xmlns="http://www.w3.org/2000/svg"><g fill="#fff"><path d="M7.916 83v-9.8h4.452c.97 0 1.755.27 2.352.812.606.532.91 1.227.91 2.086 0 .644-.182 1.204-.546 1.68-.364.467-.854.803-1.47 1.008L15.798 83h-1.624l-2.03-4.018H9.386V83h-1.47zm4.326-8.512H9.386v3.276h2.856c.57 0 1.026-.15 1.372-.448.354-.308.532-.705.532-1.19 0-.495-.178-.891-.532-1.19-.346-.299-.803-.448-1.372-.448zm10.485 7.7c-.411.317-.84.555-1.288.714-.448.15-.938.224-1.47.224a3.851 3.851 0 01-1.47-.28 3.88 3.88 0 01-1.19-.784 3.632 3.632 0 01-.798-1.162 3.851 3.851 0 01-.28-1.47c0-.513.093-.994.28-1.442.186-.448.438-.835.756-1.162a3.437 3.437 0 011.134-.77 3.393 3.393 0 011.4-.294c.485 0 .938.098 1.358.294.429.187.793.448 1.092.784.308.327.55.719.728 1.176.177.457.266.947.266 1.47v.406h-5.628a2.394 2.394 0 002.408 2.044c.345 0 .676-.056.994-.168.317-.112.588-.266.812-.462l.896.882zm-2.954-5.25c-.532 0-1 .177-1.4.532-.392.355-.64.812-.742 1.372h4.228a2.419 2.419 0 00-.742-1.358 1.888 1.888 0 00-1.344-.546zm6.977 6.188c-.775 0-1.405-.2-1.89-.602-.485-.401-.728-.924-.728-1.568 0-.672.257-1.2.77-1.582.513-.392 1.218-.588 2.114-.588.345 0 .681.037 1.008.112.327.065.64.159.938.28v-.756c0-.504-.15-.882-.448-1.134-.299-.252-.728-.378-1.288-.378a3.66 3.66 0 00-1.022.154 7.147 7.147 0 00-1.19.448l-.518-1.05a7.65 7.65 0 011.512-.546 5.71 5.71 0 011.414-.182c.924 0 1.638.224 2.142.672.513.439.77 1.064.77 1.876V83h-1.372v-.616a3.328 3.328 0 01-1.022.56c-.364.121-.76.182-1.19.182zm-1.274-2.198a1 1 0 00.434.84c.299.215.686.322 1.162.322.373 0 .719-.056 1.036-.168.317-.112.602-.28.854-.504v-1.232a3.154 3.154 0 00-.854-.322 4.034 4.034 0 00-.98-.112c-.504 0-.905.107-1.204.322-.299.215-.448.5-.448.854zm9.873.966c.355 0 .69-.07 1.008-.21.317-.15.62-.369.91-.658l.84.91a4.22 4.22 0 01-1.288.882 3.878 3.878 0 01-1.526.308 3.71 3.71 0 01-1.442-.28 3.75 3.75 0 01-1.162-.784 3.75 3.75 0 01-.784-1.162 3.851 3.851 0 01-.28-1.47c0-.513.093-.994.28-1.442.196-.457.457-.85.784-1.176a3.454 3.454 0 011.162-.784 3.558 3.558 0 011.442-.294c.532 0 1.05.107 1.554.322a3.94 3.94 0 011.316.868l-.882.952a2.798 2.798 0 00-.91-.658 2.43 2.43 0 00-1.05-.238c-.644 0-1.19.238-1.638.714-.448.476-.672 1.055-.672 1.736 0 .7.224 1.288.672 1.764.457.467 1.013.7 1.666.7zm4.96-.658V77.05h-1.512v-1.176h1.512v-1.82l1.386-.336v2.156h2.1v1.176h-2.1v3.864c0 .364.079.62.238.77.168.15.438.224.812.224.196 0 .368-.01.518-.028a3.01 3.01 0 00.504-.14v1.176a3.605 3.605 0 01-.658.154 4.447 4.447 0 01-.672.056c-.691 0-1.218-.159-1.582-.476-.364-.327-.546-.798-.546-1.414zm7.61-8.036h1.443l5.46 7.266V73.2h1.386V83H54.92l-5.614-7.504V83H47.92v-9.8zm12.245 9.926c-.775 0-1.405-.2-1.89-.602-.485-.401-.728-.924-.728-1.568 0-.672.257-1.2.77-1.582.513-.392 1.218-.588 2.114-.588.345 0 .681.037 1.008.112.327.065.64.159.938.28v-.756c0-.504-.15-.882-.448-1.134-.299-.252-.728-.378-1.288-.378a3.66 3.66 0 00-1.022.154 7.144 7.144 0 00-1.19.448l-.518-1.05a7.65 7.65 0 011.512-.546 5.709 5.709 0 011.414-.182c.924 0 1.638.224 2.142.672.513.439.77 1.064.77 1.876V83h-1.372v-.616a3.328 3.328 0 01-1.022.56c-.364.121-.76.182-1.19.182zm-1.274-2.198a1 1 0 00.434.84c.299.215.686.322 1.162.322.373 0 .719-.056 1.036-.168.317-.112.602-.28.854-.504v-1.232a3.155 3.155 0 00-.854-.322 4.035 4.035 0 00-.98-.112c-.504 0-.905.107-1.204.322-.299.215-.448.5-.448.854zm7.122.308V77.05H64.5v-1.176h1.512v-1.82l1.386-.336v2.156h2.1v1.176h-2.1v3.864c0 .364.08.62.238.77.168.15.438.224.812.224.196 0 .368-.01.518-.028a3.01 3.01 0 00.504-.14v1.176a3.603 3.603 0 01-.658.154 4.445 4.445 0 01-.672.056c-.69 0-1.218-.159-1.582-.476-.364-.327-.546-.798-.546-1.414zm5.217-6.51a.822.822 0 01-.602-.252.869.869 0 01-.252-.616c0-.233.084-.434.252-.602a.8.8 0 01.602-.266.8.8 0 01.602.266.8.8 0 01.266.602.845.845 0 01-.266.616.822.822 0 01-.602.252zm.7 1.148V83h-1.4v-7.126h1.4zM75.874 83l-3.08-7.126h1.54l2.226 5.334 2.226-5.334h1.498L77.204 83h-1.33zm11.179-.812c-.41.317-.84.555-1.288.714-.448.15-.938.224-1.47.224a3.852 3.852 0 01-1.47-.28 3.88 3.88 0 01-1.19-.784 3.632 3.632 0 01-.798-1.162 3.853 3.853 0 01-.28-1.47c0-.513.093-.994.28-1.442a3.68 3.68 0 01.756-1.162 3.44 3.44 0 011.134-.77 3.393 3.393 0 011.4-.294c.485 0 .938.098 1.358.294.43.187.793.448 1.092.784.308.327.55.719.728 1.176.177.457.266.947.266 1.47v.406h-5.628a2.394 2.394 0 002.408 2.044c.345 0 .676-.056.994-.168a2.46 2.46 0 00.812-.462l.896.882zm-2.954-5.25c-.532 0-.999.177-1.4.532-.392.355-.64.812-.742 1.372h4.228a2.418 2.418 0 00-.742-1.358 1.887 1.887 0 00-1.344-.546z"/><circle cx="48" cy="38.903" r="3.679"/><path fill-rule="evenodd" clip-rule="evenodd" d="M35.167 16.466c-2.274 1.222-3.028 2.893-3.03 6.717-.002 1.944.145 4.361.325 5.373l.328 1.84-3.284 1.334c-2.146.872-3.973 2.023-5.271 3.322-1.78 1.78-1.988 2.213-1.988 4.148 0 1.95.195 2.347 2.012 4.087 1.27 1.218 3.207 2.397 5.264 3.203 3.226 1.267 3.25 1.288 2.932 2.708-.176.787-.32 3.124-.32 5.192 0 3.093.17 3.99.96 5.058 2.787 3.764 6.266 3.156 13.87-2.423.961-.706 1.108-.706 2.07 0 7.603 5.579 11.083 6.187 13.869 2.423.79-1.067.96-1.965.96-5.058 0-2.068-.156-4.495-.348-5.393-.347-1.628-.342-1.634 1.915-2.446 5.348-1.923 8.316-4.885 8.32-8.302 0-1.53-.303-2.095-2.01-3.73-1.28-1.226-3.21-2.398-5.307-3.22-2.493-.979-3.23-1.465-3.026-1.997.149-.387.392-2.282.54-4.21.475-6.154-1.273-8.977-5.525-8.92-2.67.035-4.53.861-7.84 3.48-1.234.977-2.395 1.776-2.58 1.776-.186 0-1.141-.64-2.124-1.425-4.355-3.469-8.37-4.795-10.712-3.537zm26.068 3.026c.86 1.313.979 6.828.19 8.856l-.455 1.171-3.533-.488c-3.491-.482-3.556-.515-5.647-2.944-2.44-2.83-2.394-3.085 1-5.528 4.017-2.89 7.003-3.268 8.445-1.067zm-20.455-.536c1.884.957 5.38 3.781 5.38 4.347 0 .239-.88 1.535-1.954 2.88-1.94 2.427-1.982 2.45-5.565 3.015-1.985.313-3.68.498-3.768.41-.443-.442-1.092-6.431-.843-7.778.502-2.723 1.351-3.62 3.426-3.62 1.018 0 2.514.335 3.324.746zm8.963 7.9l1.133 1.47h-2.845c-3.04 0-3.114-.128-1.254-2.193 1.137-1.262 1.504-1.173 2.966.724zm3.41 4.574c.383.443 1.562 2.305 2.62 4.138l1.923 3.334-1.254 2.184a83.014 83.014 0 01-2.571 4.14l-1.317 1.955H48.05c-5.197 0-4.907.185-7.825-5.01l-1.909-3.399 1.918-3.268c2.982-5.082 2.658-4.879 7.767-4.879 3.672 0 4.578.142 5.152.805zm-13.124.31c-.138.36-.817 1.55-1.509 2.644l-1.257 1.99-.564-1.38c-1.118-2.736-1.025-3.187.724-3.5 2.63-.47 2.872-.448 2.606.246zm18.962-.365c1.556.311 1.568.452.298 3.62l-.553 1.379-1.257-1.99c-2.205-3.488-2.084-3.728 1.512-3.009zm-24.225 4.309l1.248 3.219-1.248 3.22c-.925 2.384-1.47 3.218-2.104 3.218-1.173 0-6.39-2.533-7.302-3.545-2.345-2.601-.972-5.323 3.873-7.68 1.849-.9 3.569-1.64 3.823-1.643.254-.004 1.023 1.44 1.71 3.211zm32.508-1.72c1.623.82 3.357 2.04 3.854 2.715 1.705 2.309-.03 5.038-4.504 7.084-3.858 1.764-3.925 1.741-5.404-1.784l-1.313-3.132 1.289-3.186c1.526-3.77 1.818-3.851 6.078-1.698zm-28.33 10.054c.711 1.288 1.186 2.447 1.057 2.578-.225.224-4.418-.26-4.418-.511 0-.585 1.536-4.421 1.768-4.416.166.003.883 1.06 1.594 2.349zm20.719-.264c.784 2.303.844 2.228-2.183 2.734-1.47.245-1.74.176-1.522-.39.351-.916 2.582-4.436 2.811-4.436.1 0 .501.942.894 2.092zM38.94 48.798c3 .32 3.1.375 5.219 2.856 2.562 2.999 2.513 3.178-1.636 5.988-2.309 1.564-3.289 1.955-4.903 1.955-1.646 0-2.156-.212-2.772-1.153-1.274-1.945-.88-10.709.458-10.195.317.121 1.952.368 3.634.548zm22.7 1.487c.56 3.389.35 6.875-.49 8.159-.617.94-1.127 1.153-2.773 1.153-1.614 0-2.594-.39-4.903-1.955-4.092-2.771-4.142-2.941-1.746-5.948 1.897-2.383 2.185-2.564 4.778-3 4.867-.82 4.727-.864 5.134 1.59zm-11.917.69c-.634.821-1.41 1.494-1.724 1.494-.315 0-1.091-.673-1.725-1.495l-1.152-1.494h5.754l-1.153 1.495z"/></g></svg>