<svg width="95" height="95" fill="none" xmlns="http://www.w3.org/2000/svg"><path d="M65.19 42.093S71.463 27.907 52.12 15c0 0 7.92 9.782 3.844 20.71 0 0-14.211-9.889-21.361-16.981 0 0 8.934 12.614 12.14 15.188 0 0-5.331-2.709-17.687-13.024 0 0 14.173 18.147 20.856 21.937 0 0-10.112 6.78-24.912-2.789 0 0 7.785 13.458 24.208 13.458 7.383 0 9.548-3.72 13.205-3.72 3.784 0 6.064 3.72 6.064 3.72 2.208-5.326-3.287-11.407-3.287-11.407zM31.24 81.376l.896-1.036c.532.513 1.073.9 1.624 1.162a4.22 4.22 0 001.75.378c.7 0 1.27-.154 1.708-.462.448-.308.672-.7.672-1.176 0-.43-.154-.76-.462-.994-.308-.243-.817-.425-1.526-.546l-1.638-.266c-.896-.15-1.568-.434-2.016-.854-.439-.43-.658-.994-.658-1.694 0-.85.331-1.53.994-2.044.663-.513 1.535-.77 2.618-.77.7 0 1.395.117 2.086.35a6.02 6.02 0 011.862.98l-.812 1.12a6.26 6.26 0 00-1.596-.896 4.44 4.44 0 00-1.61-.308c-.635 0-1.148.135-1.54.406-.392.27-.588.62-.588 1.05 0 .401.135.71.406.924.27.205.719.36 1.344.462l1.582.252c1.027.168 1.783.476 2.268.924.495.439.742 1.036.742 1.792 0 .448-.093.859-.28 1.232a2.71 2.71 0 01-.798.952 3.81 3.81 0 01-1.232.616 5.74 5.74 0 01-1.596.21c-.784 0-1.54-.154-2.268-.462a6.03 6.03 0 01-1.932-1.302zM42.954 83h-1.358l-1.988-7.126h1.358l1.372 5.236 1.638-5.236h1.204l1.624 5.236 1.386-5.236h1.316L47.504 83H46.16l-1.596-5.222L42.954 83zm8.253-8.274a.822.822 0 01-.602-.252.869.869 0 01-.252-.616c0-.233.084-.434.252-.602a.8.8 0 01.602-.266.8.8 0 01.602.266.8.8 0 01.266.602.846.846 0 01-.266.616.822.822 0 01-.602.252zm.7 1.148V83h-1.4v-7.126h1.4zm1.06 0h1.653v-1.078c0-.737.205-1.302.616-1.694.42-.401 1.022-.602 1.806-.602.186 0 .364.014.532.042.168.019.326.047.476.084v1.218a3.603 3.603 0 00-.448-.098 3.078 3.078 0 00-.434-.028c-.383 0-.672.093-.868.28-.187.177-.28.453-.28.826v1.05h2.03v1.176h-2.03V83h-1.4v-5.95h-1.652v-1.176zm7.214 5.362V77.05h-1.512v-1.176h1.512v-1.82l1.386-.336v2.156h2.1v1.176h-2.1v3.864c0 .364.079.62.238.77.168.15.438.224.812.224.196 0 .368-.01.518-.028a3.01 3.01 0 00.504-.14v1.176a3.605 3.605 0 01-.658.154 4.447 4.447 0 01-.672.056c-.691 0-1.218-.159-1.582-.476-.364-.327-.546-.798-.546-1.414z" fill="#fff"/></svg>