<svg width="95" height="95" fill="none" xmlns="http://www.w3.org/2000/svg"><g fill="#fff"><path d="M30.438 17.726H21l26.863 45.74L74 17.726h-9.075L47.863 47.493 30.438 17.726z"/><path d="M47.863 41.959L33.75 17.726h7.942l6.171 10.89 6.171-10.89h7.942L47.863 41.96zM32.876 83l-4.004-9.8h1.582l3.318 8.344 3.374-8.344h1.512l-4.06 9.8h-1.722zm7.34-7.126v4.228c0 .56.16 1.003.477 1.33.326.327.756.49 1.288.49.373 0 .709-.08 1.008-.238a2.13 2.13 0 00.742-.7v-5.11h1.4V83h-1.4v-.714c-.28.28-.602.495-.966.644a3.18 3.18 0 01-1.176.21c-.812 0-1.48-.261-2.002-.784-.514-.523-.77-1.195-.77-2.016v-4.466h1.4zm12.746 6.314c-.41.317-.84.555-1.288.714-.448.15-.938.224-1.47.224a3.851 3.851 0 01-1.47-.28 3.88 3.88 0 01-1.19-.784 3.632 3.632 0 01-.798-1.162 3.851 3.851 0 01-.28-1.47c0-.513.093-.994.28-1.442a3.68 3.68 0 01.756-1.162 3.437 3.437 0 011.134-.77 3.393 3.393 0 011.4-.294c.485 0 .938.098 1.358.294.43.187.793.448 1.092.784.308.327.55.719.728 1.176.177.457.266.947.266 1.47v.406h-5.628a2.394 2.394 0 002.408 2.044c.345 0 .677-.056.994-.168.317-.112.588-.266.812-.462l.896.882zm-2.954-5.25c-.532 0-.999.177-1.4.532-.392.355-.64.812-.742 1.372h4.228a2.419 2.419 0 00-.742-1.358 1.888 1.888 0 00-1.344-.546zm5.067 4.396c.243 0 .448.089.616.266a.816.816 0 01.267.616.861.861 0 01-.267.63.816.816 0 01-.616.266.861.861 0 01-.63-.266.86.86 0 01-.266-.63c0-.243.09-.448.267-.616a.861.861 0 01.63-.266zm3.036-6.608a.822.822 0 01-.602-.252.869.869 0 01-.252-.616c0-.233.084-.434.252-.602a.8.8 0 01.602-.266.8.8 0 01.602.266.8.8 0 01.266.602.846.846 0 01-.266.616.822.822 0 01-.602.252zm-1.33 11.228a3.275 3.275 0 01-.798-.098v-1.12a2.707 2.707 0 00.56.056c.308 0 .527-.07.658-.21.14-.13.21-.35.21-.658v-8.05h1.4v8.148c0 .616-.177 1.092-.532 1.428-.355.336-.854.504-1.498.504zm3.007-3.878l.756-.924c.373.29.751.513 1.134.672.392.15.789.224 1.19.224.504 0 .914-.098 1.232-.294.317-.196.476-.453.476-.77a.73.73 0 00-.28-.602c-.187-.15-.476-.252-.868-.308l-1.288-.182c-.7-.103-1.232-.317-1.596-.644-.355-.336-.532-.78-.532-1.33 0-.644.257-1.162.77-1.554.513-.401 1.185-.602 2.016-.602a4.85 4.85 0 011.484.224c.476.15.938.378 1.386.686l-.714.924a4.33 4.33 0 00-1.148-.56 3.478 3.478 0 00-1.106-.182c-.43 0-.775.089-1.036.266-.261.177-.392.41-.392.7 0 .261.089.462.266.602.187.13.49.229.91.294l1.288.182c.7.103 1.232.322 1.596.658.373.336.56.78.56 1.33 0 .317-.08.616-.238.896-.15.27-.36.504-.63.7a3.277 3.277 0 01-.938.476 3.98 3.98 0 01-1.176.168 5.544 5.544 0 01-1.736-.266 3.967 3.967 0 01-1.386-.784z"/></g></svg>