<svg width="95" height="95" fill="none" xmlns="http://www.w3.org/2000/svg"><g fill="#fff"><path d="M15.658 83h-1.512l-2.142-9.8h1.512l1.526 7.49 2.212-7.49h1.4l2.212 7.49 1.526-7.49h1.456L21.706 83h-1.512l-2.268-7.7-2.268 7.7zm8.475-3.57a3.593 3.593 0 011.078-2.618 3.608 3.608 0 011.176-.784 3.657 3.657 0 011.456-.294c.513 0 .994.098 1.442.294.457.187.85.448 1.176.784.336.327.597.719.784 1.176.196.448.294.929.294 1.442a3.69 3.69 0 01-.294 1.47c-.187.448-.448.84-.784 1.176a3.708 3.708 0 01-1.176.784 3.71 3.71 0 01-1.442.28 3.81 3.81 0 01-1.456-.28 3.928 3.928 0 01-1.176-.784 3.8 3.8 0 01-.798-1.176 3.851 3.851 0 01-.28-1.47zm3.71 2.478c.644 0 1.19-.238 1.638-.714.457-.485.686-1.073.686-1.764 0-.69-.229-1.274-.686-1.75a2.164 2.164 0 00-1.638-.714c-.644 0-1.195.238-1.652.714-.457.476-.686 1.06-.686 1.75s.224 1.279.672 1.764a2.224 2.224 0 001.666.714zM32.863 83v-7.126h1.4v.91c.215-.345.49-.607.826-.784.336-.187.714-.28 1.134-.28.15 0 .28.01.392.028.112.019.22.047.322.084v1.26a2.888 2.888 0 00-.406-.112 2.137 2.137 0 00-.42-.042c-.41 0-.78.112-1.106.336-.317.215-.565.537-.742.966V83h-1.4zm10.218 0v-.672a3.402 3.402 0 01-1.008.588c-.373.13-.765.196-1.176.196-.504 0-.975-.093-1.414-.28a3.798 3.798 0 01-1.148-.784 3.68 3.68 0 01-.756-1.162 3.817 3.817 0 01-.28-1.456c0-.513.093-.994.28-1.442a3.68 3.68 0 01.756-1.162 3.56 3.56 0 011.162-.77 3.524 3.524 0 011.428-.294c.392 0 .77.06 1.134.182.364.121.7.294 1.008.518V73.2l1.4-.308V83H43.08zm-4.41-3.584c0 .7.233 1.288.7 1.764.467.476 1.04.714 1.722.714a2.7 2.7 0 001.106-.224c.345-.15.635-.36.868-.63v-3.234a2.446 2.446 0 00-.868-.616 2.757 2.757 0 00-1.106-.224c-.681 0-1.255.233-1.722.7-.467.467-.7 1.05-.7 1.75zM49.219 83v-9.8h4.536c.952 0 1.722.275 2.31.826.597.541.896 1.246.896 2.114 0 .859-.3 1.559-.896 2.1-.598.541-1.368.812-2.31.812h-3.066V83h-1.47zm4.382-8.512h-2.912v3.318H53.6c.569 0 1.022-.15 1.358-.448.345-.308.518-.714.518-1.218s-.173-.905-.518-1.204c-.336-.299-.79-.448-1.358-.448zM58.307 83v-7.126h1.4v.91c.214-.345.49-.607.825-.784.337-.187.715-.28 1.135-.28.149 0 .28.01.392.028.111.019.219.047.322.084v1.26a2.888 2.888 0 00-.407-.112 2.137 2.137 0 00-.42-.042c-.41 0-.779.112-1.105.336-.318.215-.565.537-.742.966V83h-1.4zm10.931-.812c-.41.317-.84.555-1.288.714-.448.15-.938.224-1.47.224a3.851 3.851 0 01-1.47-.28 3.88 3.88 0 01-1.19-.784 3.632 3.632 0 01-.798-1.162 3.851 3.851 0 01-.28-1.47 3.725 3.725 0 011.036-2.604 3.437 3.437 0 011.134-.77 3.393 3.393 0 011.4-.294c.486 0 .938.098 1.358.294.43.187.794.448 1.092.784.308.327.55.719.728 1.176.178.457.266.947.266 1.47v.406h-5.628a2.4 2.4 0 00.812 1.47c.448.383.98.574 1.596.574.346 0 .677-.056.994-.168.318-.112.588-.266.812-.462l.896.882zm-2.954-5.25c-.532 0-.998.177-1.4.532-.392.355-.64.812-.742 1.372h4.228a2.419 2.419 0 00-.742-1.358 1.888 1.888 0 00-1.344-.546zm4.202 5.138l.756-.924c.373.29.751.513 1.134.672.392.15.789.224 1.19.224.504 0 .915-.098 1.232-.294.317-.196.476-.453.476-.77a.73.73 0 00-.28-.602c-.187-.15-.476-.252-.868-.308l-1.288-.182c-.7-.103-1.232-.317-1.596-.644-.355-.336-.532-.78-.532-1.33 0-.644.257-1.162.77-1.554.513-.401 1.185-.602 2.016-.602a4.84 4.84 0 011.484.224c.476.15.938.378 1.386.686l-.714.924a4.329 4.329 0 00-1.148-.56 3.477 3.477 0 00-1.106-.182c-.43 0-.775.089-1.036.266-.261.177-.392.41-.392.7 0 .261.089.462.266.602.187.13.49.229.91.294l1.288.182c.7.103 1.232.322 1.596.658.373.336.56.78.56 1.33 0 .317-.08.616-.238.896-.15.27-.36.504-.63.7a3.277 3.277 0 01-.938.476 3.98 3.98 0 01-1.176.168 5.544 5.544 0 01-1.736-.266 3.967 3.967 0 01-1.386-.784zm6.59 0l.756-.924c.373.29.751.513 1.134.672.392.15.788.224 1.19.224.504 0 .914-.098 1.232-.294.317-.196.476-.453.476-.77a.731.731 0 00-.28-.602c-.187-.15-.476-.252-.868-.308l-1.288-.182c-.7-.103-1.232-.317-1.596-.644-.355-.336-.532-.78-.532-1.33 0-.644.257-1.162.77-1.554.513-.401 1.185-.602 2.016-.602a4.85 4.85 0 011.484.224c.476.15.938.378 1.386.686l-.714.924a4.33 4.33 0 00-1.148-.56 3.478 3.478 0 00-1.106-.182c-.43 0-.775.089-1.036.266-.261.177-.392.41-.392.7 0 .261.088.462.266.602.187.13.49.229.91.294l1.288.182c.7.103 1.232.322 1.596.658.373.336.56.78.56 1.33 0 .317-.08.616-.238.896-.15.27-.36.504-.63.7a3.278 3.278 0 01-.938.476 3.98 3.98 0 01-1.176.168 5.544 5.544 0 01-1.736-.266 3.967 3.967 0 01-1.386-.784z"/><path fill-rule="evenodd" clip-rule="evenodd" d="M42.354 12.586c-4.74 1.022-8.903 3.367-12.61 7.103-3.76 3.791-5.696 7.143-6.945 12.03-1.538 6.017-.852 12.105 2.029 17.99 1.987 4.062 6.906 9.134 10.875 11.214 10.328 5.413 22.386 3.576 30.553-4.657 3.76-3.79 5.696-7.142 6.945-12.03 1.538-6.017.852-12.104-2.028-17.99-1.988-4.061-6.907-9.133-10.876-11.213-5.468-2.866-11.92-3.746-17.943-2.447zm11.472 2.788c4.432 1.135 7.223 2.706 10.45 5.883 3.303 3.254 5.2 6.522 6.315 10.88 1.09 4.262 1.09 7.416.003 11.67-1.134 4.433-2.704 7.225-5.88 10.453-3.252 3.305-6.52 5.204-10.875 6.318-4.261 1.09-7.413 1.091-11.665.003-4.432-1.134-7.223-2.705-10.45-5.882-3.303-3.254-5.2-6.523-6.315-10.88-1.09-4.263-1.09-7.416-.003-11.67 1.134-4.433 2.704-7.226 5.88-10.454 6.122-6.222 14.14-8.47 22.54-6.32zm-10.923 2.418c-1.25.337-3.287 1.126-4.524 1.753-2.255 1.143-6.58 4.89-7.388 6.399-.405.758-.213.795 3.404.661 3.18-.117 3.833-.03 3.833.51 0 .418-.507.701-1.412.788-.776.075-1.411.276-1.411.446 0 .441 6.452 19.704 6.674 19.926.102.102 1.187-2.822 2.412-6.5 2.099-6.3 2.193-6.77 1.635-8.173a176.39 176.39 0 01-1.34-3.528c-.654-1.785-.92-2.055-2.132-2.173-.883-.085-1.386-.37-1.386-.786 0-.549.99-.651 6.298-.651s6.297.102 6.297.651c0 .418-.507.701-1.411.788-.776.075-1.412.27-1.413.435-.004.71 7.157 20.068 7.423 20.068.162 0 .39-.44.507-.978.117-.537.824-3.052 1.57-5.588 1.83-6.21 1.785-7.549-.378-11.137-1.059-1.754-1.737-3.42-1.737-4.262 0-1.678 1.468-3.67 2.705-3.67.859 0 .867-.041.16-.822-1.133-1.252-5.457-3.418-8.313-4.162-3.123-.814-7.042-.812-10.073.005zM66.26 31.683c-.016 3.19-.306 4.328-3.467 13.58-3.753 10.989-3.746 11.19.267 6.946 4.933-5.219 6.877-12.474 5.134-19.168-.36-1.382-.939-3.037-1.285-3.676-.598-1.1-.633-.975-.65 2.318zm-37.498-1.67c-.672 1.088-1.608 5.725-1.608 7.965 0 2.99.931 6.682 2.436 9.651 1.377 2.72 5.12 6.743 7.537 8.102l1.764.992-.854-2.312c-1.434-3.881-8.568-23.56-8.784-24.233-.13-.406-.305-.465-.49-.165zm16.47 18.883c-2.289 6.666-2.867 8.818-2.476 9.21.664.664 9.383.641 10.953-.03l1.148-.489-3.047-8.393c-1.677-4.615-3.17-8.528-3.32-8.694-.15-.167-1.616 3.612-3.258 8.396z"/></g></svg>