<svg width="60" height="71" fill="none" xmlns="http://www.w3.org/2000/svg"><path d="M19.868 70.808C8.994 70.748 0 49.475 0 38.642c0-17.697 13.852-21.57 19.19-21.57 2.406 0 4.975.905 7.241 1.706 1.584.559 3.223 1.136 4.135 1.136.545 0 1.83-.491 2.966-.922 2.42-.923 5.432-2.071 8.94-2.071h.02c2.62 0 10.56.55 15.335 7.422l1.118 1.61-1.61 1.164c-2.299 1.663-6.494 4.696-6.494 10.704 0 7.115 4.751 9.852 7.033 11.168 1.008.58 2.051 1.18 2.051 2.49 0 .855-7.123 19.223-17.468 19.223-2.531 0-4.32-.73-5.899-1.373-1.597-.65-2.974-1.211-5.25-1.211-1.154 0-2.613.522-4.158 1.077-2.11.755-4.5 1.613-7.211 1.613h-.071zM43.568.79c.27 9.31-6.678 15.768-13.617 15.363C28.808 8.723 36.89.79 43.568.79z" fill="#1C60F3"/></svg>