<svg width="93" height="81" fill="none" xmlns="http://www.w3.org/2000/svg"><path d="M52.381 68.918l1.497 7.172H38.927l1.496-7.172h11.958z" fill="#F10222"/><path d="M67.348 56.087V66.11h-41.89V44.612c0-1.577 1.347-2.868 2.993-2.868h35.904c1.647 0 2.993 1.29 2.993 2.868v11.475z" fill="#fff"/><path d="M67.348 66.11v2.869c0 1.578-1.346 2.869-2.993 2.869H28.45c-1.646 0-2.994-1.291-2.994-2.869V66.11h41.891z" fill="#F10222"/><path fill-rule="evenodd" clip-rule="evenodd" d="M72.212 15.94c11.404.187 20.578 9.093 20.578 20.067 0 11.087-9.368 20.08-20.952 20.08h-4.49V44.612c0-1.577-1.346-2.868-2.993-2.868H28.45c-1.646 0-2.994 1.29-2.994 2.868v11.475h-8.994C7.38 56.087 0 49.016 0 40.31c0-8.721 7.38-15.778 16.463-15.778h1.661C19.621 10.832 31.714.148 46.395.148c11.436 0 21.297 6.47 25.817 15.792zM52.383 31.118c-.827 0-1.496-.641-1.496-1.434V18.8l-.439.42c-.292.28-.675.42-1.058.42s-.766-.14-1.058-.42a1.391 1.391 0 010-2.028l2.958-2.835c.196-.2.452-.347.742-.414a1.57 1.57 0 01.715.003l.011.003c.279.068.526.212.717.407l2.96 2.836a1.39 1.39 0 010 2.028c-.292.28-.675.42-1.059.42-.383 0-.766-.14-1.058-.42l-.438-.42v10.884c0 .793-.67 1.434-1.497 1.434zm-13.912-5.317l.438.42V15.338c0-.793.67-1.435 1.497-1.435.827 0 1.496.641 1.496 1.435V26.22l.439-.42a1.541 1.541 0 012.116 0 1.39 1.39 0 010 2.028l-2.959 2.836c-.273.279-.66.453-1.092.453a1.52 1.52 0 01-1.093-.454l-2.959-2.835a1.39 1.39 0 010-2.028 1.541 1.541 0 012.117 0z" fill="#F10222"/><path d="M65.957 74.48H26.834c-2.698 0-4.894-2.115-4.894-4.715V43.064c0-2.6 2.196-4.716 4.894-4.716h39.123c2.698 0 4.894 2.116 4.894 4.716v26.7c0 2.6-2.196 4.717-4.894 4.717zM26.834 41.493c-.9 0-1.632.703-1.632 1.572v26.7c0 .87.731 1.573 1.632 1.573h39.123c.9 0 1.631-.703 1.631-1.572V43.064c0-.87-.73-1.572-1.631-1.572H26.834z" fill="#fff"/><path d="M64.343 73.282H28.448c-2.476 0-4.49-1.93-4.49-4.303V44.615c0-2.372 2.015-4.303 4.49-4.303h35.895c2.475 0 4.49 1.931 4.49 4.303V68.98c0 2.372-2.015 4.303-4.49 4.303zm-35.895-30.1c-.826 0-1.497.64-1.497 1.433V68.98c0 .793.67 1.434 1.497 1.434h35.895c.826 0 1.496-.64 1.496-1.434V44.615c0-.793-.67-1.434-1.496-1.434H28.448zm28.424 37.272H35.919c-.828 0-1.497-.641-1.497-1.435 0-.793.67-1.434 1.497-1.434h20.953c.827 0 1.496.641 1.496 1.434 0 .793-.669 1.435-1.496 1.435z" fill="#F10222"/><path d="M46.44 71.13c-.828 0-1.504-.64-1.504-1.434 0-.793.661-1.434 1.488-1.434h.016c.826 0 1.497.64 1.497 1.434 0 .793-.67 1.434-1.497 1.434z" fill="#fff"/></svg>