<svg width="48" height="76" fill="none" xmlns="http://www.w3.org/2000/svg"><path d="M9.236 13.192h25.999c.482 0 .944-.197 1.269-.541.325-.341.482-.803.434-1.262l-1.026-9.836C35.823.717 35.088.078 34.21.078H10.262c-.88 0-1.615.64-1.704 1.475L7.533 11.39c-.048.462.11.921.434 1.262.325.344.787.54 1.27.54zm36.945 19.671c.945 0 1.71-.735 1.71-1.64v-3.278c0-.905-.765-1.64-1.71-1.64-.944 0-1.71.735-1.71 1.64v-3.279c0-4.517-3.838-8.195-8.552-8.195H8.552C3.838 16.47 0 20.149 0 24.666v26.228c0 4.518 3.838 8.196 8.552 8.196h27.367c4.714 0 8.552-3.678 8.552-8.196v-3.278c0 .905.766 1.64 1.71 1.64.945 0 1.71-.735 1.71-1.64v-3.279c0-.905-.765-1.639-1.71-1.639-.944 0-1.71.734-1.71 1.64V31.223c0 .904.766 1.639 1.71 1.639zM22.236 50.894c-1.889 0-3.421-1.472-3.421-3.278s1.532-3.279 3.42-3.279c1.889 0 3.421 1.472 3.421 3.279 0 1.806-1.532 3.278-3.42 3.278zm6.047-8.396a1.742 1.742 0 01-1.21.479c-.438 0-.876-.16-1.211-.479-1.998-1.918-5.258-1.918-7.256 0-.667.64-1.752.64-2.419 0a1.592 1.592 0 010-2.318c3.336-3.196 8.761-3.196 12.093 0 .67.643.67 1.679.003 2.318zm4.837-4.636a1.742 1.742 0 01-1.21.48c-.438 0-.876-.161-1.211-.48-4.523-4.334-12.408-4.334-16.93 0-.667.64-1.752.64-2.419 0a1.592 1.592 0 010-2.318c2.908-2.786 6.77-4.32 10.885-4.32 4.116 0 7.978 1.534 10.886 4.32.667.64.667 1.68 0 2.318zm4.838-4.636a1.742 1.742 0 01-1.211.48c-.438 0-.876-.161-1.211-.48-3.554-3.406-8.279-5.281-13.304-5.281s-9.75 1.875-13.303 5.282a1.766 1.766 0 01-2.419 0 1.593 1.593 0 010-2.318c4.2-4.026 9.78-6.242 15.722-6.242s11.522 2.216 15.722 6.242c.67.64.67 1.678.004 2.318zm-2.723 29.143H9.236c-.482 0-.944.197-1.269.54a1.592 1.592 0 00-.434 1.263l1.026 9.835c.09.836.824 1.476 1.704 1.476h23.945c.88 0 1.615-.64 1.704-1.476l1.026-9.835a1.588 1.588 0 00-.434-1.262 1.748 1.748 0 00-1.27-.541z" fill="#F90"/></svg>